<svg width="48" height="48" viewBox="0 0 48 48" fill="none" xmlns="http://www.w3.org/2000/svg">
<path opacity="0.2" d="M22.3826 25.139L6.37012 12.689L5.08105 11.6859L6.3748 12.6937V37.125H41.6248V12.6937L25.6029 25.139C25.1424 25.4968 24.5759 25.691 23.9928 25.691C23.4096 25.691 22.8431 25.4968 22.3826 25.139Z" fill="#48887B"/>
<path d="M41.0767 9.31873L42.9188 11.6859L41.6251 12.6937L42.9235 11.6859L41.0813 9.31873H41.0767Z" fill="#9DD3AF"/>
<path d="M43.5 7.5H4.5C3.67031 7.5 3 8.17031 3 9V39C3 39.8297 3.67031 40.5 4.5 40.5H43.5C44.3297 40.5 45 39.8297 45 39V9C45 8.17031 44.3297 7.5 43.5 7.5ZM39.0703 10.8797L24 22.5938L8.92969 10.8797H39.0703ZM41.625 12.6937V37.125H6.375V12.6937L5.08125 11.6859L6.37031 12.6891L22.3828 25.1391C22.8433 25.4968 23.4098 25.691 23.993 25.691C24.5761 25.691 25.1426 25.4968 25.6031 25.1391L41.625 12.6937ZM41.625 12.6937L42.9187 11.6859L41.0766 9.31875H41.0813L42.9234 11.6859L41.625 12.6937Z" fill="#48887B"/>
</svg>
