<svg width="24" height="13" viewBox="0 0 24 13" fill="none" xmlns="http://www.w3.org/2000/svg">
<path d="M1.66585 12.7085L12.0011 2.34767L22.3363 12.7085C22.5209 12.894 22.7688 12.9979 23.0269 12.9979C23.2851 12.9979 23.533 12.894 23.7176 12.7085C23.807 12.6184 23.878 12.5109 23.9265 12.3922C23.975 12.2735 24 12.1461 24 12.0174C24 11.8886 23.975 11.7612 23.9265 11.6425C23.878 11.5238 23.807 11.4163 23.7176 11.3262L12.7227 0.301876C12.5297 0.108325 12.2707 4.23168e-07 12.0011 4.23168e-07C11.7314 4.23168e-07 11.4725 0.108325 11.2794 0.301876L0.284518 11.3241C0.194475 11.4143 0.122909 11.5221 0.0740422 11.6411C0.0251756 11.7602 7.48586e-07 11.8881 7.48586e-07 12.0174C7.48586e-07 12.1466 0.0251756 12.2745 0.0740422 12.3936C0.122909 12.5127 0.194475 12.6205 0.284518 12.7106C0.469166 12.8961 0.717055 13 0.975187 13C1.23332 13 1.48121 12.8961 1.66585 12.7106V12.7085Z" fill="white"/>
</svg>
