<svg width="31" height="25" viewBox="0 0 31 25" fill="none" xmlns="http://www.w3.org/2000/svg">
<path d="M26.3119 13.8888H1.81643C1.05435 13.8888 0.455566 13.2777 0.455566 12.5C0.455566 11.7222 1.05435 11.1111 1.81643 11.1111H26.3119C27.074 11.1111 27.6728 11.7222 27.6728 12.5C27.6728 13.2777 27.074 13.8888 26.3119 13.8888Z" fill="#9DD3AF"/>
<path d="M19.5078 23.6111C19.3294 23.6133 19.1524 23.5774 18.9883 23.5056C18.8243 23.4339 18.6767 23.3279 18.5552 23.1944C18.0109 22.6389 18.0109 21.7778 18.5552 21.2222L27.1287 12.4722L18.5552 3.72222C18.0109 3.16666 18.0109 2.30555 18.5552 1.74999C19.0996 1.19444 19.9433 1.19444 20.4877 1.74999L30.0137 11.4722C30.558 12.0278 30.558 12.8889 30.0137 13.4444L20.4877 23.1667C20.2155 23.4444 19.8617 23.5833 19.5351 23.5833L19.5078 23.6111Z" fill="#9DD3AF"/>
</svg>
