<svg width="31" height="25" viewBox="0 0 31 25" fill="none" xmlns="http://www.w3.org/2000/svg">
<path d="M4.5267 11.1112L29.0222 11.1112C29.7843 11.1112 30.3831 11.7223 30.3831 12.5C30.3831 13.2778 29.7843 13.8889 29.0222 13.8889L4.5267 13.8889C3.76462 13.8889 3.16584 13.2778 3.16584 12.5C3.16584 11.7223 3.76462 11.1112 4.5267 11.1112Z" fill="#9DD3AF"/>
<path d="M11.3305 1.38889C11.509 1.38667 11.686 1.4226 11.85 1.49436C12.0141 1.56612 12.1616 1.67212 12.2831 1.80556C12.8275 2.36112 12.8275 3.22223 12.2831 3.77778L3.70972 12.5278L12.2831 21.2778C12.8275 21.8333 12.8275 22.6944 12.2831 23.25C11.7388 23.8056 10.8951 23.8056 10.3507 23.25L0.8247 13.5278C0.280356 12.9722 0.280356 12.1111 0.8247 11.5556L10.3507 1.83334C10.6229 1.55556 10.9767 1.41667 11.3033 1.41667L11.3305 1.38889Z" fill="#9DD3AF"/>
</svg>
