<svg width="2361" height="1217" viewBox="0 0 2361 1217" fill="none" xmlns="http://www.w3.org/2000/svg">
<rect y="24" width="671" height="1168" fill="#094F57"/>
<rect y="1116" width="1694" height="101" fill="#094F57"/>
<rect width="1694" height="103" fill="#094F57"/>
<path d="M667 101H1034V424C1034 446.091 1016.09 464 994 464H667V101Z" fill="#094F57"/>
<path d="M667 758H1033V1121H667V758Z" fill="#094F57"/>
<path d="M1326 101H1692V464H1326V101Z" fill="#094F57"/>
<path d="M1326 797C1326 774.909 1343.91 757 1366 757H1692V1121H1326V797Z" fill="#094F57"/>
<rect x="1690" width="671" height="1217" fill="#094F57"/>
<path d="M573 554.748L750.937 372L811.838 431.297L794.5 464L777 467L761 471.5L747 476L733 484L719.25 493L707.5 504L696.5 517L688 529L679.5 544L674.5 556L672.5 561.5L671.5 567L671 578.5L633.9 614.045L573 554.748Z" fill="#094F57"/>
<path d="M768.154 857.079L578.069 687.002L634.747 623.657L668.151 639.601L671.886 656.959L677.056 672.755L690.725 700.203L700.297 713.562L711.782 724.838L725.234 735.28L737.582 743.267L752.927 751.127L765.127 755.617L770.707 757.383L776.244 758.15L787.755 758.165L824.832 793.734L768.154 857.079Z" fill="#094F57"/>
<path d="M1138.6 1216.67L944 1051.78L998.948 986.929L1032.77 1001.97L1036.97 1019.22L1042.57 1034.87L1056.97 1061.94L1066.9 1075.03L1078.69 1085.99L1092.41 1096.07L1104.97 1103.72L1120.52 1111.16L1132.84 1115.32L1138.47 1116.94L1144.02 1117.56L1155.53 1117.26L1193.55 1151.82L1138.6 1216.67Z" fill="#D9D9D9"/>
<path d="M1138.6 1216.67L944 1051.78L998.948 986.929L1032.77 1001.97L1036.97 1019.22L1042.57 1034.87L1056.97 1061.94L1066.9 1075.03L1078.69 1085.99L1092.41 1096.07L1104.97 1103.72L1120.52 1111.16L1132.84 1115.32L1138.47 1116.94L1144.02 1117.56L1155.53 1117.26L1193.55 1151.82L1138.6 1216.67Z" fill="#094F57"/>
<path d="M1790.4 675.896L1600.93 854.996L1539.98 790.518L1558.92 757.69L1577.07 755.532L1593.73 751.745L1608.89 746.982L1623.02 740.344L1637.58 731.636L1649.98 721.067L1661.74 708.237L1670.9 696.306L1680.15 681.278L1685.7 669.159L1687.94 663.589L1689.14 657.965L1690.03 646.121L1729.45 611.419L1790.4 675.896Z" fill="#094F57"/>
<path d="M1223.61 0.229492L1419.33 172.472L1360.72 239.078L1326.29 223.231L1322.48 205.35L1317.18 189.113L1311.04 174.451L1303.14 160.988L1293.13 147.291L1281.47 135.915L1267.61 125.374L1254.89 117.351L1239.08 109.517L1226.5 105.109L1220.75 103.389L1215.04 102.702L1203.16 102.908L1164.99 66.8355L1223.61 0.229492Z" fill="#094F57"/>
<path d="M930 205.985L1105.37 7.99964L1172.15 67.1523L1155.89 101.96L1137.81 105.835L1121.38 111.209L1106.53 117.425L1092.88 125.43L1078.98 135.557L1067.41 147.356L1056.66 161.369L1048.46 174.233L1040.43 190.222L1035.89 202.936L1034.11 208.75L1033.37 214.522L1033.49 226.522L996.782 265.138L930 205.985Z" fill="#094F57"/>
<path d="M1582.48 362L1782.44 529.308L1724.99 597.975L1690.11 583.067L1685.92 565.211L1680.26 549.05L1673.81 534.497L1665.6 521.201L1655.27 507.732L1643.33 496.645L1629.21 486.461L1616.28 478.775L1600.25 471.37L1587.54 467.311L1581.73 465.753L1576 464.5L1563 463.5L1525.02 430.667L1582.48 362Z" fill="#094F57"/>
<path d="M1425.52 1009.81L1261.38 1205.05L1197.14 1151.03L1212.14 1117.24L1229.28 1112.89L1244.83 1107.17L1271.73 1092.57L1284.75 1082.56L1295.66 1070.72L1305.7 1056.97L1313.32 1044.4L1320.75 1028.85L1324.91 1016.56L1326.52 1010.95L1327.15 1005.42L1326.89 993.972L1361.28 955.803L1425.52 1009.81Z" fill="#094F57"/>
</svg>
