<svg width="30" height="30" viewBox="0 0 30 30" fill="none" xmlns="http://www.w3.org/2000/svg">
<path d="M26.7188 5.625H9.60938C9.48047 5.625 9.375 5.73047 9.375 5.85938V7.5C9.375 7.62891 9.48047 7.73438 9.60938 7.73438H26.7188C26.8477 7.73438 26.9531 7.62891 26.9531 7.5V5.85938C26.9531 5.73047 26.8477 5.625 26.7188 5.625ZM26.7188 13.9453H9.60938C9.48047 13.9453 9.375 14.0508 9.375 14.1797V15.8203C9.375 15.9492 9.48047 16.0547 9.60938 16.0547H26.7188C26.8477 16.0547 26.9531 15.9492 26.9531 15.8203V14.1797C26.9531 14.0508 26.8477 13.9453 26.7188 13.9453ZM26.7188 22.2656H9.60938C9.48047 22.2656 9.375 22.3711 9.375 22.5V24.1406C9.375 24.2695 9.48047 24.375 9.60938 24.375H26.7188C26.8477 24.375 26.9531 24.2695 26.9531 24.1406V22.5C26.9531 22.3711 26.8477 22.2656 26.7188 22.2656ZM3.04688 6.67969C3.04687 6.89514 3.08931 7.10848 3.17176 7.30753C3.25421 7.50658 3.37506 7.68744 3.5274 7.83978C3.67975 7.99213 3.86061 8.11298 4.05966 8.19543C4.25871 8.27788 4.47205 8.32031 4.6875 8.32031C4.90295 8.32031 5.11629 8.27788 5.31534 8.19543C5.51439 8.11298 5.69525 7.99213 5.8476 7.83978C5.99994 7.68744 6.12079 7.50658 6.20324 7.30753C6.28569 7.10848 6.32813 6.89514 6.32812 6.67969C6.32813 6.46424 6.28569 6.2509 6.20324 6.05185C6.12079 5.8528 5.99994 5.67194 5.8476 5.51959C5.69525 5.36724 5.51439 5.2464 5.31534 5.16395C5.11629 5.0815 4.90295 5.03906 4.6875 5.03906C4.47205 5.03906 4.25871 5.0815 4.05966 5.16395C3.86061 5.2464 3.67975 5.36724 3.5274 5.51959C3.37506 5.67194 3.25421 5.8528 3.17176 6.05185C3.08931 6.2509 3.04687 6.46424 3.04688 6.67969ZM3.04688 15C3.04687 15.2154 3.08931 15.4288 3.17176 15.6278C3.25421 15.8269 3.37506 16.0078 3.5274 16.1601C3.67975 16.3124 3.86061 16.4333 4.05966 16.5157C4.25871 16.5982 4.47205 16.6406 4.6875 16.6406C4.90295 16.6406 5.11629 16.5982 5.31534 16.5157C5.51439 16.4333 5.69525 16.3124 5.8476 16.1601C5.99994 16.0078 6.12079 15.8269 6.20324 15.6278C6.28569 15.4288 6.32813 15.2154 6.32812 15C6.32813 14.7846 6.28569 14.5712 6.20324 14.3722C6.12079 14.1731 5.99994 13.9922 5.8476 13.8399C5.69525 13.6876 5.51439 13.5667 5.31534 13.4843C5.11629 13.4018 4.90295 13.3594 4.6875 13.3594C4.47205 13.3594 4.25871 13.4018 4.05966 13.4843C3.86061 13.5667 3.67975 13.6876 3.5274 13.8399C3.37506 13.9922 3.25421 14.1731 3.17176 14.3722C3.08931 14.5712 3.04687 14.7846 3.04688 15ZM3.04688 23.3203C3.04687 23.5358 3.08931 23.7491 3.17176 23.9482C3.25421 24.1472 3.37506 24.3281 3.5274 24.4804C3.67975 24.6328 3.86061 24.7536 4.05966 24.8361C4.25871 24.9185 4.47205 24.9609 4.6875 24.9609C4.90295 24.9609 5.11629 24.9185 5.31534 24.8361C5.51439 24.7536 5.69525 24.6328 5.8476 24.4804C5.99994 24.3281 6.12079 24.1472 6.20324 23.9482C6.28569 23.7491 6.32813 23.5358 6.32812 23.3203C6.32813 23.1049 6.28569 22.8915 6.20324 22.6925C6.12079 22.4934 5.99994 22.3126 5.8476 22.1602C5.69525 22.0079 5.51439 21.887 5.31534 21.8046C5.11629 21.7221 4.90295 21.6797 4.6875 21.6797C4.47205 21.6797 4.25871 21.7221 4.05966 21.8046C3.86061 21.887 3.67975 22.0079 3.5274 22.1602C3.37506 22.3126 3.25421 22.4934 3.17176 22.6925C3.08931 22.8915 3.04687 23.1049 3.04688 23.3203Z" fill="#48887B"/>
</svg>
