<svg width="41" height="41" viewBox="0 0 41 41" fill="none" xmlns="http://www.w3.org/2000/svg">
<path opacity="0.5" fill-rule="evenodd" clip-rule="evenodd" d="M27.3333 8.54166C26.8615 8.54166 26.4791 8.92408 26.4791 9.39582V12.0081C26.3356 12.0588 26.1955 12.1228 26.0607 12.1999L20.494 15.2578L14.7584 12.1971C14.6808 12.1529 14.6015 12.1131 14.5208 12.0776V9.39582C14.5208 8.92408 14.1383 8.54166 13.6666 8.54166C13.1949 8.54166 12.8124 8.92408 12.8124 9.39582V11.9529C12.6042 12.0101 12.4015 12.0941 12.2095 12.2049L7.26031 15.0623C7.11234 15.1477 6.97496 15.2467 6.84938 15.3571L5.5403 14.6286C5.12809 14.3992 4.60796 14.5474 4.37856 14.9596C4.14916 15.3718 4.29736 15.892 4.70956 16.1214L6.01589 16.8484C5.99159 16.9901 5.97906 17.1349 5.97906 17.2815V22.9964C5.97906 23.1055 5.986 23.2137 5.99958 23.3203L4.7157 24.0211C4.30162 24.2471 4.14917 24.766 4.37518 25.1801C4.6012 25.5941 5.12009 25.7466 5.53417 25.5206L6.76873 24.8467C6.9154 24.9873 7.07998 25.1115 7.26031 25.2156L12.2095 28.073C12.4015 28.1838 12.6042 28.2678 12.8124 28.325V30.75C12.8124 31.2217 13.1949 31.6042 13.6666 31.6042C14.1383 31.6042 14.5208 31.2217 14.5208 30.75V28.2003C14.6039 28.1638 14.6855 28.1227 14.7652 28.0769L20.4939 24.897L26.052 28.073L26.054 28.0742C26.1909 28.153 26.3332 28.2182 26.4791 28.2698V30.75C26.4791 31.2217 26.8615 31.6042 27.3333 31.6042C27.805 31.6042 28.1874 31.2217 28.1874 30.75V28.2698C28.3341 28.218 28.4771 28.1524 28.6145 28.073L33.5638 25.2156C33.78 25.0907 33.9736 24.937 34.1408 24.7609L35.45 25.5118C35.8592 25.7465 36.3812 25.605 36.6159 25.1958C36.8506 24.7866 36.7091 24.2646 36.2999 24.0299L34.8376 23.1912C34.8425 23.1267 34.845 23.0617 34.845 22.9964V17.2815C34.845 17.1777 34.8387 17.0748 34.8264 16.9732L36.3045 16.1133C36.7122 15.8761 36.8505 15.3532 36.6132 14.9455C36.376 14.5377 35.8532 14.3995 35.4454 14.6367L34.0645 15.44C33.9156 15.2959 33.7479 15.1686 33.5638 15.0623L28.6145 12.2049C28.4771 12.1255 28.3341 12.0599 28.1874 12.0081V9.39582C28.1874 8.92408 27.805 8.54166 27.3333 8.54166ZM19.6458 23.4139L13.9178 26.5935C13.8118 26.6546 13.6964 26.6913 13.5788 26.7035C13.4024 26.7217 13.2221 26.685 13.0637 26.5936L8.11448 23.7361C7.9644 23.6495 7.84708 23.5212 7.77357 23.3703C7.71773 23.2556 7.6874 23.1283 7.6874 22.9964V17.2815C7.6874 17.1328 7.72598 16.9897 7.79627 16.8642C7.87024 16.7321 7.97896 16.62 8.11448 16.5418L13.0637 13.6843C13.2221 13.5929 13.4024 13.5562 13.5788 13.5744C13.6964 13.5866 13.8119 13.6232 13.9179 13.6843L13.9302 13.6915L19.6458 16.7415V23.4139ZM21.3541 16.7345L26.9063 13.6845C27.0385 13.6082 27.1856 13.5699 27.3333 13.5699C27.4809 13.5699 27.6282 13.608 27.7604 13.6843L32.7096 16.5418C32.8646 16.6312 32.9846 16.7651 33.0576 16.9224C33.1089 17.0332 33.1367 17.1552 33.1367 17.2815V22.9964C33.1367 23.1054 33.116 23.2111 33.0774 23.3092C33.0076 23.4865 32.8795 23.638 32.7096 23.7361L27.7604 26.5936C27.6282 26.6699 27.4809 26.708 27.3333 26.708C27.1856 26.708 27.0384 26.6699 26.9062 26.5936L26.9029 26.5917L21.3541 23.421V16.7345Z" fill="#9DD3AF"/>
<path d="M13.6667 5.125C12.2515 5.125 11.1042 6.27227 11.1042 7.6875C11.1042 9.10273 12.2515 10.25 13.6667 10.25C15.082 10.25 16.2292 9.10273 16.2292 7.6875C16.2292 6.27227 15.082 5.125 13.6667 5.125Z" fill="#9DD3AF"/>
<path d="M13.6667 29.8958C12.2515 29.8958 11.1042 31.0431 11.1042 32.4583C11.1042 33.8736 12.2515 35.0208 13.6667 35.0208C15.082 35.0208 16.2292 33.8736 16.2292 32.4583C16.2292 31.0431 15.082 29.8958 13.6667 29.8958Z" fill="#9DD3AF"/>
<path d="M27.3333 5.125C25.918 5.125 24.7708 6.27227 24.7708 7.6875C24.7708 9.10273 25.918 10.25 27.3333 10.25C28.7485 10.25 29.8958 9.10273 29.8958 7.6875C29.8958 6.27227 28.7485 5.125 27.3333 5.125Z" fill="#9DD3AF"/>
<path d="M27.3333 29.8958C25.918 29.8958 24.7708 31.0431 24.7708 32.4583C24.7708 33.8736 25.918 35.0208 27.3333 35.0208C28.7485 35.0208 29.8958 33.8736 29.8958 32.4583C29.8958 31.0431 28.7485 29.8958 27.3333 29.8958Z" fill="#9DD3AF"/>
</svg>
