<svg width="39" height="39" viewBox="0 0 39 39" fill="none" xmlns="http://www.w3.org/2000/svg">
<path d="M5.08496 21.125C7.28647 27.3731 12.7985 32.2836 19.212 34.715C19.3975 34.7853 19.6024 34.7853 19.788 34.715C24.006 33.1159 27.7798 30.1394 30.5012 26.634C32.0286 24.6665 33.2411 22.5102 34.0098 20.3125H29.4183C29.095 20.3125 28.785 20.1841 28.5565 19.9555L27.0351 18.4341L25.3538 21.7967C24.9817 22.5408 23.9901 22.7017 23.4019 22.1135L22.0412 20.7527L19.0599 24.9265C18.4497 25.7808 17.1167 25.5152 16.8807 24.4921L15.1211 16.8675L12.3895 21.7845C11.9607 22.5563 10.8789 22.6302 10.3491 21.9238L8.84957 19.9245L8.00599 20.768C7.77743 20.9966 7.46744 21.125 7.1442 21.125H5.08496Z" fill="#9DD3AF"/>
<path opacity="0.5" d="M4.0625 15.1755C4.0625 9.98121 8.01945 5.6875 13.0065 5.6875C15.581 5.6875 17.8828 6.84104 19.5003 8.66665C21.1208 6.84057 23.4323 5.6875 25.9935 5.6875C30.9806 5.6875 34.9375 9.98121 34.9375 15.1755C34.9375 16.3328 34.7832 17.5109 34.4941 18.6875H29.5865L27.7856 16.8865C27.1974 16.2983 26.2057 16.4592 25.8337 17.2033L24.1524 20.5659L22.8511 19.2646C22.3186 18.732 21.4353 18.8051 20.9976 19.418L18.2614 23.2486L16.4669 15.4722C16.2158 14.3845 14.7561 14.1785 14.2139 15.1544L11.2732 20.4476L9.86855 18.5747C9.42354 17.9814 8.5562 17.9198 8.03176 18.4442L6.97595 19.5H4.59597C4.24826 18.1119 4.0625 16.6666 4.0625 15.1755Z" fill="#9DD3AF"/>
</svg>
