<svg width="37" height="37" viewBox="0 0 37 37" fill="none" xmlns="http://www.w3.org/2000/svg">
<path opacity="0.5" d="M11.5624 15.8884C10.4647 20.629 16.5674 21.8354 15.1267 25.1754C13.6853 28.5147 10.4593 27.8471 10.8193 31.1864C11.1801 34.5264 15.449 34.5734 19.3355 32.5615C27.1078 28.537 28.7296 19.7464 25.2123 15.8884C20.8895 11.1478 12.6601 11.1478 11.5624 15.8884Z" fill="#9DD3AF" stroke="#9DD3AF" stroke-width="3"/>
<path d="M25.1344 12.2047C25.7866 12.752 26.9809 12.4025 27.8018 11.4242C28.6227 10.4458 28.7595 9.20904 28.1073 8.66174C27.455 8.11445 26.2608 8.46389 25.4398 9.44225C24.6189 10.4206 24.4821 11.6574 25.1344 12.2047Z" fill="#9DD3AF"/>
<path d="M21.6704 10.2693C22.4421 10.6291 23.5052 9.98249 24.0449 8.825C24.5847 7.6675 24.3967 6.43746 23.625 6.07762C22.8533 5.71779 21.7902 6.36442 21.2505 7.52192C20.7107 8.67942 20.8987 9.90946 21.6704 10.2693Z" fill="#9DD3AF"/>
<path d="M17.7812 9.70222C18.628 9.79122 19.4227 8.8337 19.5562 7.56353C19.6897 6.29337 19.1114 5.19155 18.2647 5.10255C17.4179 5.01355 16.6232 5.97108 16.4897 7.24124C16.3562 8.5114 16.9344 9.61322 17.7812 9.70222Z" fill="#9DD3AF"/>
<path d="M11.8461 9.06406C13.0463 8.62725 13.547 6.97594 12.9646 5.37575C12.3822 3.77557 10.9371 2.83248 9.737 3.26929C8.53687 3.7061 8.03611 5.35741 8.61853 6.9576C9.20095 8.55778 10.646 9.50087 11.8461 9.06406Z" fill="#9DD3AF" stroke="#9DD3AF" stroke-width="3"/>
<path d="M27.9326 15.0038C28.4799 15.656 29.7167 15.5193 30.6951 14.6983C31.6734 13.8774 32.0229 12.6831 31.4756 12.0309C30.9283 11.3787 29.6915 11.5154 28.7131 12.3364C27.7348 13.1573 27.3853 14.3516 27.9326 15.0038Z" fill="#9DD3AF"/>
</svg>
