<svg width="15" height="15" viewBox="0 0 15 15" fill="none" xmlns="http://www.w3.org/2000/svg">
<path opacity="0.2" d="M13.7458 11.24C13.6365 12.0563 13.2345 12.8052 12.6145 13.3474C11.9945 13.8896 11.1986 14.1881 10.375 14.1875C7.83887 14.1875 5.40661 13.18 3.61329 11.3867C1.81998 9.59334 0.812501 7.16109 0.812501 4.62495C0.811871 3.80132 1.1104 3.00548 1.65257 2.38545C2.19474 1.76543 2.94364 1.36341 3.76 1.25417C3.88068 1.23984 4.00276 1.26497 4.10796 1.32581C4.21316 1.38665 4.29583 1.47992 4.3436 1.59167L5.8293 4.91042C5.8658 4.99566 5.88067 5.0886 5.87257 5.18098C5.86447 5.27335 5.83367 5.36229 5.78289 5.43987L4.28031 7.22652C4.22701 7.30694 4.1955 7.39982 4.18884 7.49607C4.18219 7.59233 4.20062 7.68866 4.24234 7.77566C4.82383 8.96605 6.0543 10.1817 7.2482 10.7576C7.33566 10.7992 7.43243 10.8172 7.52898 10.8099C7.62553 10.8026 7.71851 10.7703 7.79875 10.7161L9.55656 9.21847C9.63446 9.16663 9.72406 9.13505 9.81725 9.12658C9.91044 9.1181 10.0043 9.13301 10.0902 9.16995L13.4062 10.6557C13.5184 10.7031 13.6123 10.7857 13.6735 10.8911C13.7348 10.9965 13.7601 11.1189 13.7458 11.24Z" fill="#9DD3AF"/>
<path d="M13.6354 10.1417L10.323 8.6574L10.3138 8.65318C10.1419 8.57963 9.95429 8.55012 9.76805 8.5673C9.58181 8.58449 9.40279 8.64784 9.24719 8.75162C9.22887 8.76372 9.21127 8.77687 9.19446 8.791L7.48305 10.25C6.39883 9.72334 5.27946 8.6124 4.75282 7.54225L6.21391 5.80482C6.22798 5.78725 6.24133 5.76967 6.25399 5.75068C6.35554 5.5955 6.41716 5.41763 6.43335 5.23288C6.44954 5.04814 6.41981 4.86225 6.3468 4.69178V4.68334L4.85829 1.36529C4.76178 1.14259 4.59583 0.957068 4.38522 0.836429C4.1746 0.715789 3.93062 0.666499 3.68969 0.695917C2.73694 0.821289 1.8624 1.28919 1.22941 2.01223C0.596427 2.73528 0.248284 3.66401 0.250006 4.62498C0.250006 10.2078 4.79219 14.75 10.375 14.75C11.336 14.7517 12.2647 14.4036 12.9878 13.7706C13.7108 13.1376 14.1787 12.263 14.3041 11.3103C14.3335 11.0694 14.2844 10.8255 14.1638 10.6149C14.0433 10.4043 13.858 10.2383 13.6354 10.1417ZM10.375 13.625C7.98886 13.6224 5.70119 12.6733 4.01392 10.9861C2.32666 9.2988 1.37761 7.01113 1.37501 4.62498C1.37236 3.93837 1.61973 3.27427 2.07091 2.75671C2.5221 2.23915 3.14625 1.90351 3.8268 1.81248C3.82653 1.81529 3.82653 1.81811 3.8268 1.82092L5.30337 5.1256L3.85001 6.86514C3.83525 6.88211 3.82185 6.90021 3.80993 6.91928C3.70412 7.08164 3.64205 7.26859 3.62973 7.46199C3.61741 7.6554 3.65526 7.84871 3.73962 8.02318C4.37665 9.32607 5.68938 10.629 7.00633 11.2653C7.18209 11.3489 7.37652 11.3854 7.57062 11.3714C7.76473 11.3573 7.95187 11.2931 8.11376 11.1851C8.13181 11.173 8.14918 11.1598 8.16579 11.1458L9.87508 9.68748L13.1798 11.1676H13.1875C13.0976 11.8491 12.7624 12.4745 12.2448 12.9268C11.7271 13.3791 11.0624 13.6273 10.375 13.625Z" fill="#9DD3AF"/>
</svg>
