<svg width="32" height="25" viewBox="0 0 32 25" fill="none" xmlns="http://www.w3.org/2000/svg">
<g clip-path="url(#clip0_308_714)">
<path d="M31.2572 5.15386C30.2725 4.17544 28.6759 4.17544 27.6912 5.15386L17.8848 14.8975C16.9001 15.8759 16.9001 17.4622 17.8848 18.4406C18.8695 19.419 20.466 19.419 21.4507 18.4406L24.571 15.3403L27.6954 18.4447C28.6801 19.4232 30.2766 19.4232 31.2613 18.4447C32.2461 17.4663 32.2461 15.88 31.2613 14.9016L28.1369 11.7972L31.2572 8.69699C32.2419 7.71857 32.2419 6.13224 31.2572 5.15386Z" fill="#7F61FD"/>
<path d="M7.27658 0C5.88398 0 4.75504 1.1217 4.75504 2.50538V10.7375L4.30451 10.2898C3.31979 9.31142 1.72325 9.31142 0.738538 10.2898C-0.246179 11.2682 -0.24618 12.8546 0.738538 13.833L5.48661 18.5506C5.49126 18.5553 5.49592 18.5599 5.50061 18.5645L5.50609 18.57C6.4908 19.5484 8.08735 19.5484 9.07206 18.57C9.62845 18.0172 9.87048 17.2703 9.79811 16.5486V2.50538C9.79811 1.1217 8.66918 0 7.27658 0Z" fill="#7F61FD"/>
<path d="M13.5801 0C12.1875 0 11.0586 1.1217 11.0586 2.50538V16.786C11.0586 18.1697 12.1875 19.2914 13.5801 19.2914C14.9727 19.2914 16.1016 18.1697 16.1016 16.786V8.5538L17.443 9.88655C18.4277 10.865 20.0243 10.865 21.009 9.88655C21.9937 8.90813 21.9937 7.32184 21.009 6.34342L15.399 0.769316C15.3921 0.762487 15.3852 0.755709 15.3782 0.748978C14.9208 0.286688 14.2842 0 13.5801 0Z" fill="#7F61FD"/>
<path d="M0.966558 24.0765C0.786379 24.0765 0.622996 24.0376 0.476407 23.9599C0.329822 23.8821 0.213773 23.7686 0.128264 23.6194C0.0427545 23.467 0 23.2789 0 23.055C0 22.8373 0.0442817 22.6507 0.132845 22.4953C0.224462 22.3367 0.343563 22.2154 0.490151 22.1315C0.639791 22.0444 0.801647 22.0009 0.975721 22.0009C1.15895 22.0009 1.31012 22.0397 1.42922 22.1175C1.54833 22.1952 1.63995 22.2885 1.70408 22.3973L1.67659 22.4719L1.7224 22.0801H2.14842V24.0298H1.68575V23.5354L1.73156 23.652C1.71935 23.6769 1.69339 23.7127 1.65369 23.7593C1.61398 23.806 1.56207 23.8541 1.49794 23.9039C1.43381 23.9505 1.35593 23.991 1.26431 24.0252C1.17575 24.0594 1.0765 24.0765 0.966558 24.0765ZM1.09024 23.6893C1.24294 23.6893 1.3712 23.6489 1.47504 23.5681C1.58192 23.4841 1.65216 23.3706 1.68575 23.2276V22.8264C1.64911 22.6989 1.57429 22.5932 1.46129 22.5093C1.35135 22.4253 1.22309 22.3833 1.0765 22.3833C0.966558 22.3833 0.865781 22.4113 0.774162 22.4673C0.682547 22.5201 0.609255 22.5963 0.554284 22.6958C0.499314 22.7922 0.471829 22.9042 0.471829 23.0316C0.471829 23.156 0.499314 23.268 0.554284 23.3675C0.612306 23.467 0.688656 23.5463 0.783325 23.6054C0.877998 23.6613 0.980303 23.6893 1.09024 23.6893Z" fill="#E7225D"/>
<path d="M3.80547 25C3.65888 25 3.53062 24.9813 3.42068 24.944C3.31074 24.9098 3.21148 24.8632 3.12291 24.8041C3.0374 24.745 2.95495 24.6797 2.87555 24.6082L3.1504 24.2864C3.24506 24.3797 3.3428 24.4527 3.44359 24.5056C3.54741 24.5584 3.66499 24.5849 3.79629 24.5849C4.00397 24.5849 4.16429 24.5351 4.2773 24.4356C4.39028 24.3361 4.44829 24.2024 4.45137 24.0345V23.5261L4.48343 23.6147C4.42846 23.7453 4.33072 23.8557 4.19027 23.9459C4.05282 24.0329 3.8818 24.0765 3.67719 24.0765C3.50008 24.0765 3.33821 24.0314 3.19161 23.9412C3.04504 23.851 2.92746 23.7282 2.8389 23.5727C2.75034 23.4172 2.70605 23.2416 2.70605 23.0457C2.70605 22.8435 2.75187 22.6647 2.84348 22.5093C2.93815 22.3507 3.06183 22.2263 3.21452 22.1361C3.36723 22.046 3.53062 22.0009 3.70469 22.0009C3.87571 22.0009 4.0284 22.0335 4.16276 22.0988C4.30021 22.1641 4.40096 22.2481 4.46512 22.3507L4.44221 22.43L4.48799 22.0801H4.91404V24.0438C4.91404 24.221 4.86822 24.3812 4.77659 24.5242C4.685 24.6704 4.55671 24.7854 4.3918 24.8694C4.22689 24.9565 4.03144 25 3.80547 25ZM3.1733 23.0316C3.1733 23.156 3.2008 23.268 3.25577 23.3675C3.31378 23.467 3.39014 23.5463 3.48481 23.6054C3.58252 23.6613 3.69094 23.6893 3.81004 23.6893C3.9719 23.6893 4.10931 23.6473 4.22233 23.5634C4.33531 23.4763 4.41167 23.366 4.45137 23.2322V22.8311C4.41167 22.6974 4.33379 22.5901 4.21773 22.5093C4.10168 22.4253 3.96579 22.3833 3.81004 22.3833C3.69094 22.3833 3.58252 22.4113 3.48481 22.4673C3.39014 22.5233 3.31378 22.5994 3.25577 22.6958C3.2008 22.7922 3.1733 22.9042 3.1733 23.0316Z" fill="#E7225D"/>
<path d="M6.53345 24.0764C6.31357 24.0764 6.12423 24.0329 5.96544 23.9458C5.80664 23.8556 5.68447 23.7328 5.59896 23.5773C5.51344 23.4187 5.4707 23.2399 5.4707 23.0409C5.4707 22.8481 5.51804 22.674 5.61271 22.5185C5.71042 22.3599 5.84022 22.234 6.00206 22.1407C6.16393 22.0474 6.34411 22.0008 6.54261 22.0008C6.79915 22.0008 7.01139 22.0769 7.17934 22.2293C7.35037 22.3786 7.4649 22.59 7.52292 22.8636L5.96084 23.4141L5.8509 23.1435L7.10606 22.6771L7.00987 22.7424C6.97321 22.6429 6.9152 22.5574 6.8358 22.4859C6.75637 22.4112 6.64799 22.3739 6.51054 22.3739C6.33952 22.3739 6.19907 22.4345 6.08913 22.5558C5.98223 22.674 5.92878 22.8263 5.92878 23.0129C5.92878 23.2119 5.98679 23.3721 6.10285 23.4933C6.2189 23.6146 6.3655 23.6753 6.54261 23.6753C6.62508 23.6753 6.70448 23.6612 6.78083 23.6333C6.85716 23.6022 6.92892 23.5617 6.99612 23.512L7.20685 23.8618C7.1091 23.9271 7.00072 23.98 6.88159 24.0204C6.76556 24.0577 6.64951 24.0764 6.53345 24.0764ZM6.87243 21.6976L6.45557 21.2591L6.58386 21.2218L6.16241 21.6976H5.74096L6.51054 20.886H6.51514L7.29844 21.6976H6.87243Z" fill="#E7225D"/>
<path d="M8.45986 22.0801L8.50108 22.5326L8.48273 22.4673C8.54382 22.3273 8.64156 22.2154 8.77593 22.1314C8.91334 22.0475 9.07369 22.0055 9.25691 22.0055C9.43709 22.0055 9.58521 22.0599 9.70123 22.1688C9.81729 22.2745 9.87685 22.4144 9.8799 22.5885V24.0298H9.41723V22.7518C9.41418 22.6523 9.38516 22.5714 9.33019 22.5093C9.27522 22.4439 9.18971 22.4097 9.07369 22.4066C8.91182 22.4066 8.77593 22.475 8.66599 22.6119C8.55909 22.7487 8.50564 22.9244 8.50564 23.1389V24.0298H8.04297V22.0801H8.45986Z" fill="#E7225D"/>
<path d="M12.173 23.8479C12.0874 23.9194 11.9836 23.9754 11.8615 24.0158C11.7423 24.0562 11.6217 24.0764 11.4996 24.0764C11.2919 24.0764 11.1072 24.0345 10.9453 23.9505C10.7865 23.8665 10.6628 23.7484 10.5743 23.596C10.4857 23.4436 10.4414 23.2633 10.4414 23.0549C10.4414 22.8435 10.4887 22.6616 10.5834 22.5092C10.6781 22.3569 10.8018 22.2403 10.9545 22.1594C11.1102 22.0754 11.2766 22.0334 11.4538 22.0334C11.6126 22.0334 11.7515 22.0552 11.8706 22.0988C11.9928 22.1423 12.0982 22.2029 12.1867 22.2807L11.9577 22.5839C11.9057 22.5403 11.8401 22.5015 11.7607 22.4672C11.6813 22.433 11.5927 22.4159 11.495 22.4159C11.3851 22.4159 11.2843 22.4439 11.1926 22.4999C11.1041 22.5559 11.0338 22.6321 10.982 22.7284C10.93 22.8248 10.9041 22.9337 10.9041 23.0549C10.9041 23.1731 10.93 23.2804 10.982 23.3768C11.0369 23.4732 11.1117 23.5494 11.2064 23.6053C11.3041 23.6613 11.4141 23.6893 11.5362 23.6893C11.6156 23.6893 11.6889 23.6769 11.7561 23.652C11.8263 23.6271 11.8874 23.5945 11.9394 23.554L12.173 23.8479Z" fill="#E7225D"/>
<path d="M12.7133 22.0802H13.176V24.0299H12.7133V22.0802ZM12.6904 21.3806C12.6904 21.3091 12.7179 21.2484 12.7729 21.1986C12.8309 21.1489 12.8935 21.124 12.9607 21.124C13.0279 21.124 13.089 21.1489 13.1439 21.1986C13.1989 21.2484 13.2264 21.3091 13.2264 21.3806C13.2264 21.4583 13.1989 21.5205 13.1439 21.5671C13.089 21.6138 13.0279 21.6371 12.9607 21.6371C12.8935 21.6371 12.8309 21.6138 12.7729 21.5671C12.7179 21.5205 12.6904 21.4583 12.6904 21.3806Z" fill="#E7225D"/>
<path d="M14.7002 24.0765C14.52 24.0765 14.3566 24.0376 14.2101 23.9599C14.0635 23.8821 13.9474 23.7686 13.8619 23.6194C13.7764 23.467 13.7336 23.2789 13.7336 23.055C13.7336 22.8373 13.7779 22.6507 13.8665 22.4953C13.9581 22.3367 14.0772 22.2154 14.2238 22.1315C14.3734 22.0444 14.5353 22.0009 14.7094 22.0009C14.8926 22.0009 15.0438 22.0397 15.1629 22.1175C15.282 22.1952 15.3736 22.2885 15.4377 22.3973L15.4102 22.4719L15.456 22.0801H15.882V24.0298H15.4194V23.5354L15.4652 23.652C15.453 23.6769 15.427 23.7127 15.3873 23.7593C15.3476 23.806 15.2957 23.8541 15.2316 23.9039C15.1674 23.9505 15.0896 23.991 14.998 24.0252C14.9094 24.0594 14.8101 24.0765 14.7002 24.0765ZM14.8239 23.6893C14.9766 23.6893 15.1048 23.6489 15.2087 23.5681C15.3156 23.4841 15.3858 23.3706 15.4194 23.2276V22.8264C15.3828 22.6989 15.3079 22.5932 15.1949 22.5093C15.085 22.4253 14.9567 22.3833 14.8101 22.3833C14.7002 22.3833 14.5994 22.4113 14.5078 22.4673C14.4162 22.5201 14.3429 22.5963 14.2879 22.6958C14.2329 22.7922 14.2055 22.9042 14.2055 23.0316C14.2055 23.156 14.2329 23.268 14.2879 23.3675C14.346 23.467 14.4223 23.5463 14.517 23.6054C14.6116 23.6613 14.714 23.6893 14.8239 23.6893Z" fill="#E7225D"/>
<path d="M18.7665 23.8479C18.681 23.9194 18.5772 23.9754 18.455 24.0158C18.3359 24.0562 18.2153 24.0764 18.0931 24.0764C17.8854 24.0764 17.7007 24.0345 17.5388 23.9505C17.38 23.8665 17.2563 23.7484 17.1678 23.596C17.0792 23.4436 17.0349 23.2633 17.0349 23.0549C17.0349 22.8435 17.0822 22.6616 17.1769 22.5092C17.2716 22.3569 17.3953 22.2403 17.548 22.1594C17.7037 22.0754 17.8702 22.0334 18.0473 22.0334C18.2061 22.0334 18.345 22.0552 18.4641 22.0988C18.5863 22.1423 18.6917 22.2029 18.7802 22.2807L18.5512 22.5839C18.4993 22.5403 18.4336 22.5015 18.3542 22.4672C18.2748 22.433 18.1862 22.4159 18.0885 22.4159C17.9786 22.4159 17.8778 22.4439 17.7862 22.4999C17.6976 22.5559 17.6274 22.6321 17.5755 22.7284C17.5236 22.8248 17.4976 22.9337 17.4976 23.0549C17.4976 23.1731 17.5236 23.2804 17.5755 23.3768C17.6304 23.4732 17.7053 23.5494 17.7999 23.6053C17.8976 23.6613 18.0076 23.6893 18.1298 23.6893C18.2092 23.6893 18.2824 23.6769 18.3496 23.652C18.4199 23.6271 18.481 23.5945 18.5329 23.554L18.7665 23.8479Z" fill="#E7225D"/>
<path d="M19.7189 22.0801L19.7647 22.6398L19.7464 22.5652C19.7983 22.4471 19.8701 22.346 19.9617 22.2621C20.0564 22.1781 20.1541 22.1143 20.2549 22.0708C20.3587 22.0242 20.4457 22.0009 20.516 22.0009L20.4931 22.4673C20.3496 22.4579 20.2228 22.486 20.1129 22.5512C20.006 22.6166 19.922 22.7036 19.8609 22.8124C19.7999 22.9213 19.7693 23.0379 19.7693 23.1622V24.0298H19.3066V22.0801H19.7189Z" fill="#E7225D"/>
<path d="M21.0512 22.0802H21.5139V24.0299H21.0512V22.0802ZM21.0283 21.3806C21.0283 21.3091 21.0558 21.2484 21.1108 21.1986C21.1688 21.1489 21.2314 21.124 21.2986 21.124C21.3658 21.124 21.4269 21.1489 21.4818 21.1986C21.5368 21.2484 21.5643 21.3091 21.5643 21.3806C21.5643 21.4583 21.5368 21.5205 21.4818 21.5671C21.4269 21.6138 21.3658 21.6371 21.2986 21.6371C21.2314 21.6371 21.1688 21.6138 21.1108 21.5671C21.0558 21.5205 21.0283 21.4583 21.0283 21.3806Z" fill="#E7225D"/>
<path d="M23.0388 24.0765C22.8586 24.0765 22.6953 24.0376 22.5487 23.9599C22.4021 23.8821 22.2861 23.7686 22.2006 23.6194C22.115 23.467 22.0723 23.2789 22.0723 23.055C22.0723 22.8373 22.1166 22.6507 22.2051 22.4953C22.2967 22.3367 22.4158 22.2154 22.5624 22.1315C22.7121 22.0444 22.8739 22.0009 23.048 22.0009C23.2312 22.0009 23.3824 22.0397 23.5015 22.1175C23.6206 22.1952 23.7122 22.2885 23.7763 22.3973L23.7489 22.4719L23.7947 22.0801H24.2207V24.0298H23.758V23.5354L23.8038 23.652C23.7916 23.6769 23.7657 23.7127 23.726 23.7593C23.6863 23.806 23.6343 23.8541 23.5702 23.9039C23.5061 23.9505 23.4282 23.991 23.3366 24.0252C23.248 24.0594 23.1488 24.0765 23.0388 24.0765ZM23.1625 23.6893C23.3152 23.6893 23.4435 23.6489 23.5473 23.5681C23.6542 23.4841 23.7244 23.3706 23.758 23.2276V22.8264C23.7214 22.6989 23.6466 22.5932 23.5336 22.5093C23.4236 22.4253 23.2954 22.3833 23.1488 22.3833C23.0388 22.3833 22.9381 22.4113 22.8464 22.4673C22.7548 22.5201 22.6815 22.5963 22.6266 22.6958C22.5716 22.7922 22.5441 22.9042 22.5441 23.0316C22.5441 23.156 22.5716 23.268 22.6266 23.3675C22.6846 23.467 22.7609 23.5463 22.8556 23.6054C22.9503 23.6613 23.0526 23.6893 23.1625 23.6893Z" fill="#E7225D"/>
<path d="M25.1271 21.2266H25.5943V22.0848H26.1074V22.4533H25.5943V24.0298H25.1271V22.4533H24.7881V22.0848H25.1271V21.2266Z" fill="#E7225D"/>
<path d="M26.6167 22.0801H27.0793V24.0298H26.6167V22.0801ZM26.5938 21.3805C26.5938 21.3089 26.6212 21.2483 26.6762 21.1985C26.7342 21.1488 26.7968 21.1239 26.864 21.1239C26.9312 21.1239 26.9923 21.1488 27.0473 21.1985C27.1022 21.2483 27.1297 21.3089 27.1297 21.3805C27.1297 21.4582 27.1022 21.5204 27.0473 21.567C26.9923 21.6136 26.9312 21.637 26.864 21.637C26.7968 21.637 26.7342 21.6136 26.6762 21.567C26.6212 21.5204 26.5938 21.4582 26.5938 21.3805Z" fill="#E7225D"/>
<path d="M28.5992 24.0857L27.5227 22.0801H28.0678L28.7778 23.596L28.4938 23.582L29.1397 22.0801H29.6528L28.6221 24.0857H28.5992Z" fill="#E7225D"/>
<path d="M30.8182 24.0765C30.638 24.0765 30.4746 24.0376 30.328 23.9599C30.1814 23.8821 30.0654 23.7686 29.9798 23.6194C29.8943 23.467 29.8516 23.2789 29.8516 23.055C29.8516 22.8373 29.8959 22.6507 29.9844 22.4953C30.076 22.3367 30.1951 22.2154 30.3417 22.1315C30.4914 22.0444 30.6532 22.0009 30.8273 22.0009C31.0105 22.0009 31.1617 22.0397 31.2808 22.1175C31.3999 22.1952 31.4915 22.2885 31.5556 22.3973L31.5282 22.4719L31.574 22.0801H32V24.0298H31.5373V23.5354L31.5831 23.652C31.5709 23.6769 31.545 23.7127 31.5053 23.7593C31.4656 23.806 31.4136 23.8541 31.3495 23.9039C31.2854 23.9505 31.2075 23.991 31.1159 24.0252C31.0273 24.0594 30.9281 24.0765 30.8182 24.0765ZM30.9418 23.6893C31.0945 23.6893 31.2228 23.6489 31.3266 23.5681C31.4335 23.4841 31.5037 23.3706 31.5373 23.2276V22.8264C31.5007 22.6989 31.4259 22.5932 31.3129 22.5093C31.2029 22.4253 31.0747 22.3833 30.9281 22.3833C30.8181 22.3833 30.7174 22.4113 30.6257 22.4673C30.5341 22.5201 30.4608 22.5963 30.4059 22.6958C30.3509 22.7922 30.3234 22.9042 30.3234 23.0316C30.3234 23.156 30.3509 23.268 30.4059 23.3675C30.4639 23.467 30.5402 23.5463 30.6349 23.6054C30.7296 23.6613 30.8319 23.6893 30.9418 23.6893Z" fill="#E7225D"/>
</g>
<defs>
<clipPath id="clip0_308_714">
<rect width="32" height="25" fill="white"/>
</clipPath>
</defs>
</svg>
