<svg width="38" height="32" viewBox="0 0 38 32" fill="none" xmlns="http://www.w3.org/2000/svg">
<path fill-rule="evenodd" clip-rule="evenodd" d="M0.25 2.71875C0.25 2.09715 0.49693 1.50101 0.936468 1.06147C1.37601 0.62193 1.97215 0.375 2.59375 0.375H35.4062C36.0279 0.375 36.624 0.62193 37.0635 1.06147C37.5031 1.50101 37.75 2.09715 37.75 2.71875C37.75 3.34035 37.5031 3.93649 37.0635 4.37603C36.624 4.81557 36.0279 5.0625 35.4062 5.0625H2.59375C1.97215 5.0625 1.37601 4.81557 0.936468 4.37603C0.49693 3.93649 0.25 3.34035 0.25 2.71875ZM0.25 16C0.25 15.3784 0.49693 14.7823 0.936468 14.3427C1.37601 13.9032 1.97215 13.6563 2.59375 13.6562H35.4062C36.0279 13.6563 36.624 13.9032 37.0635 14.3427C37.5031 14.7823 37.75 15.3784 37.75 16C37.75 16.6216 37.5031 17.2177 37.0635 17.6573C36.624 18.0968 36.0279 18.3438 35.4062 18.3438H2.59375C1.97215 18.3438 1.37601 18.0968 0.936468 17.6573C0.49693 17.2177 0.25 16.6216 0.25 16ZM19 29.2812C19 28.6596 19.2469 28.0635 19.6865 27.624C20.126 27.1844 20.7221 26.9375 21.3438 26.9375H35.4062C36.0279 26.9375 36.624 27.1844 37.0635 27.624C37.5031 28.0635 37.75 28.6596 37.75 29.2812C37.75 29.9029 37.5031 30.499 37.0635 30.9385C36.624 31.3781 36.0279 31.625 35.4062 31.625H21.3438C20.7221 31.625 20.126 31.3781 19.6865 30.9385C19.2469 30.499 19 29.9029 19 29.2812Z" fill="#48887B"/>
</svg>
