<svg width="48" height="48" viewBox="0 0 48 48" fill="none" xmlns="http://www.w3.org/2000/svg">
<path opacity="0.2" d="M41.9888 32.64C41.6974 34.8169 40.6254 36.814 38.972 38.2598C37.3186 39.7056 35.1964 40.5016 33 40.5C26.237 40.5 19.751 37.8134 14.9688 33.0312C10.1866 28.249 7.5 21.763 7.5 15C7.49832 12.8036 8.2944 10.6814 9.74018 9.02796C11.186 7.37455 13.183 6.30251 15.36 6.01121C15.6818 5.97298 16.0074 6.04 16.2879 6.20224C16.5684 6.36448 16.7889 6.61321 16.9163 6.91121L20.8781 15.7612C20.9755 15.9885 21.0151 16.2364 20.9935 16.4827C20.9719 16.729 20.8898 16.9662 20.7544 17.1731L16.7475 21.9375C16.6054 22.1519 16.5213 22.3996 16.5036 22.6563C16.4858 22.913 16.535 23.1698 16.6463 23.4018C18.1969 26.5762 21.4781 29.8181 24.6619 31.3537C24.8951 31.4645 25.1532 31.5125 25.4106 31.4931C25.6681 31.4737 25.916 31.3876 26.13 31.2431L30.8175 27.2493C31.0252 27.1111 31.2642 27.0269 31.5127 27.0043C31.7612 26.9817 32.0114 27.0215 32.2406 27.12L41.0831 31.0818C41.3825 31.2084 41.6327 31.4287 41.796 31.7097C41.9594 31.9907 42.027 32.3172 41.9888 32.64Z" fill="#48887B"/>
<path d="M41.6944 29.7112L32.8613 25.7531L32.8369 25.7419C32.3783 25.5457 31.8781 25.467 31.3815 25.5129C30.8848 25.5587 30.4074 25.7276 29.9925 26.0044C29.9436 26.0366 29.8967 26.0716 29.8519 26.1094L25.2881 30C22.3969 28.5956 19.4119 25.6331 18.0075 22.7794L21.9038 18.1462C21.9413 18.0994 21.9769 18.0525 22.0106 18.0019C22.2814 17.5881 22.4457 17.1137 22.4889 16.6211C22.5321 16.1284 22.4528 15.6327 22.2581 15.1781V15.1556L18.2888 6.30749C18.0314 5.71361 17.5889 5.21889 17.0272 4.89718C16.4656 4.57548 15.815 4.44404 15.1725 4.52249C12.6318 4.85681 10.2997 6.10455 8.61177 8.03267C6.92381 9.96078 5.99542 12.4374 6.00002 15C6.00002 29.8875 18.1125 42 33 42C35.5626 42.0046 38.0392 41.0762 39.9673 39.3882C41.8955 37.7003 43.1432 35.3682 43.4775 32.8275C43.5561 32.1852 43.4249 31.5348 43.1036 30.9732C42.7822 30.4116 42.2879 29.9689 41.6944 29.7112ZM33 39C26.637 38.993 20.5365 36.4622 16.0371 31.9629C11.5378 27.4635 9.00696 21.363 9.00002 15C8.99296 13.169 9.65261 11.3981 10.8558 10.0179C12.0589 8.63777 13.7233 7.74274 15.5381 7.49999C15.5374 7.50747 15.5374 7.51501 15.5381 7.52249L19.4756 16.335L15.6 20.9737C15.5606 21.0189 15.5249 21.0672 15.4931 21.1181C15.211 21.5511 15.0455 22.0496 15.0126 22.5654C14.9798 23.0811 15.0807 23.5966 15.3056 24.0619C17.0044 27.5362 20.505 31.0106 24.0169 32.7075C24.4856 32.9303 25.0041 33.0278 25.5217 32.9903C26.0393 32.9528 26.5383 32.7817 26.97 32.4937C27.0183 32.4615 27.0646 32.4264 27.1088 32.3887L31.6669 28.5L40.4794 32.4469H40.5C40.2602 34.2642 39.3665 35.932 37.9861 37.1381C36.6057 38.3443 34.8331 39.0062 33 39Z" fill="#48887B"/>
</svg>
