<svg width="134" height="133" viewBox="0 0 134 133" fill="none" xmlns="http://www.w3.org/2000/svg">
<path d="M130.678 58.7957C130.221 58.8635 129.825 58.8302 129.489 58.6958C129.155 58.5609 128.885 58.3451 128.678 58.0484C128.473 57.7512 128.34 57.3958 128.278 56.9821L128.067 55.5731L128.807 55.4631C128.826 55.5684 128.851 55.7125 128.882 55.8956C128.913 56.0818 128.942 56.2635 128.968 56.4408C128.999 56.6207 129.02 56.7558 129.034 56.846C129.081 57.1632 129.188 57.3939 129.353 57.5378C129.519 57.6849 129.708 57.7744 129.921 57.8064C130.137 57.8411 130.34 57.8443 130.531 57.816C130.724 57.7872 130.916 57.7253 131.107 57.6302C131.3 57.5378 131.453 57.3975 131.566 57.2091C131.678 57.0238 131.711 56.7725 131.663 56.4553C131.643 56.3184 131.619 56.1582 131.591 55.9747C131.567 55.7938 131.545 55.6238 131.524 55.4648L125.839 56.3096C125.816 56.2399 125.794 56.162 125.775 56.0758C125.756 55.9928 125.741 55.9139 125.73 55.8393C125.72 55.7709 125.711 55.6926 125.704 55.6046C125.698 55.5197 125.696 55.4405 125.698 55.3671L132.049 54.4234L132.114 54.4757C132.173 54.8231 132.228 55.1472 132.279 55.448C132.334 55.7483 132.384 56.054 132.431 56.3651C132.493 56.7756 132.471 57.1525 132.366 57.4956C132.261 57.8387 132.069 58.1232 131.789 58.3491C131.511 58.5782 131.14 58.727 130.678 58.7957Z" fill="#9DD3AF"/>
<path d="M133.053 63.5355C133.067 63.6011 133.079 63.6778 133.088 63.7657C133.097 63.8535 133.103 63.932 133.105 64.0011C133.107 64.0797 133.106 64.1616 133.102 64.2466C133.099 64.3317 133.091 64.4105 133.081 64.4832L126.61 64.6742C126.595 64.6022 126.584 64.5239 126.575 64.4392C126.566 64.3546 126.56 64.2729 126.558 64.1943C126.556 64.1252 126.557 64.0465 126.56 63.9583C126.564 63.8701 126.571 63.7928 126.582 63.7264L133.053 63.5355Z" fill="#9DD3AF"/>
<path d="M133.002 69.8543C133.011 69.934 133.013 70.0305 133.01 70.1438C133.009 70.2574 133.005 70.3503 132.999 70.4223C132.992 70.5038 132.98 70.5959 132.965 70.6987C132.949 70.8015 132.931 70.8978 132.91 70.9875L131.819 70.6396L131.816 70.5636C131.601 70.5571 131.361 70.5469 131.095 70.5328C130.833 70.5222 130.566 70.508 130.295 70.4902C130.027 70.4759 129.776 70.4584 129.543 70.4377L126.484 70.1663C126.479 70.0837 126.477 70.0046 126.477 69.9288C126.478 69.8531 126.481 69.7839 126.486 69.7213C126.492 69.6617 126.501 69.5931 126.514 69.5154C126.527 69.4376 126.544 69.3601 126.563 69.2829L133.002 69.8543ZM130.456 71.087C130.699 70.9886 130.934 70.899 131.16 70.818C131.389 70.7404 131.608 70.6652 131.818 70.5922L132.4 70.1987L132.91 70.9875L128.71 72.6749C128.454 72.7753 128.204 72.8669 127.962 72.9496C127.72 73.0354 127.497 73.1151 127.294 73.1886L126.761 73.6149L126.25 72.7834L130.456 71.087ZM132.582 74.4961L126.157 73.926C126.148 73.8495 126.145 73.7576 126.149 73.6506C126.149 73.5432 126.153 73.4426 126.161 73.3486C126.169 73.2578 126.181 73.1625 126.196 73.0628C126.211 72.9663 126.229 72.8732 126.25 72.7834L127.293 73.1412L127.296 73.2219C127.546 73.2283 127.81 73.2376 128.088 73.2496C128.366 73.2616 128.639 73.2764 128.907 73.2939C129.175 73.3145 129.417 73.3344 129.634 73.3537L132.117 73.574C132.328 73.5927 132.476 73.6421 132.561 73.7223C132.649 73.8027 132.684 73.94 132.666 74.1342L132.639 74.4444L132.582 74.4961Z" fill="#9DD3AF"/>
<path d="M128.302 78.4012C128.307 78.3735 128.318 78.3227 128.334 78.2488C128.352 78.1756 128.37 78.1021 128.385 78.0282C128.404 77.955 128.417 77.903 128.423 77.8722C128.442 77.783 128.46 77.6903 128.477 77.5943C128.493 77.5013 128.511 77.4102 128.53 77.321L129.337 77.49C129.318 77.5793 129.297 77.6697 129.275 77.7614C129.251 77.8562 129.23 77.9482 129.212 78.0374C129.205 78.0682 129.194 78.1205 129.178 78.1944C129.166 78.2689 129.152 78.3431 129.136 78.4169C129.124 78.4914 129.114 78.5425 129.109 78.5702L128.768 80.1813C128.762 80.2089 128.75 80.2594 128.731 80.3326C128.715 80.4065 128.698 80.48 128.679 80.5532C128.664 80.6271 128.653 80.6778 128.647 80.7055C128.628 80.7979 128.61 80.8905 128.593 80.9835C128.576 81.0795 128.558 81.1722 128.539 81.2614L127.732 81.0924C127.751 81.0031 127.772 80.9111 127.796 80.8164C127.818 80.7247 127.839 80.6327 127.859 80.5404C127.865 80.5127 127.874 80.4616 127.886 80.3871C127.902 80.3132 127.916 80.239 127.929 80.1645C127.944 80.0907 127.955 80.0399 127.961 80.0122L128.302 78.4012ZM125.546 77.279C125.548 77.2057 125.556 77.1253 125.568 77.0378C125.579 76.9534 125.593 76.8743 125.608 76.8004C125.623 76.7327 125.642 76.6564 125.666 76.5716C125.69 76.4898 125.716 76.4148 125.743 76.3466L132.078 77.6739C132.075 77.7472 132.068 77.8261 132.057 77.9105C132.045 77.998 132.032 78.0756 132.017 78.1433C132.002 78.2171 131.982 78.2949 131.958 78.3767C131.934 78.4616 131.908 78.5381 131.881 78.6063L129.896 78.1905C129.766 78.1633 129.65 78.1374 129.549 78.113C129.451 78.0892 129.338 78.064 129.212 78.0374L128.423 77.8722C128.299 77.8463 128.186 77.8242 128.084 77.8059C127.981 77.7876 127.865 77.7649 127.735 77.7377L125.546 77.279ZM127.174 80.3873C127.304 80.4145 127.42 80.4404 127.521 80.4648C127.623 80.4893 127.735 80.5145 127.859 80.5404L128.647 80.7055C128.774 80.7321 128.887 80.7542 128.987 80.7719C129.089 80.7902 129.206 80.8129 129.336 80.8401L131.32 81.256C131.318 81.3294 131.311 81.4082 131.299 81.4926C131.288 81.577 131.275 81.6546 131.26 81.7254C131.244 81.7992 131.224 81.8786 131.2 81.9635C131.175 82.0483 131.15 82.1233 131.123 82.1884L124.788 80.8612C124.791 80.7878 124.798 80.7089 124.809 80.6245C124.82 80.5432 124.834 80.4641 124.85 80.3872C124.865 80.3164 124.885 80.2385 124.909 80.1537C124.933 80.0719 124.958 79.9969 124.986 79.9287L127.174 80.3873Z" fill="#9DD3AF"/>
<path d="M62.8613 132.058C62.7849 132.066 62.6928 132.07 62.5852 132.07C62.4776 132.07 62.3844 132.068 62.3055 132.063C62.2298 132.059 62.1386 132.05 62.0317 132.037C61.9249 132.025 61.8388 132.009 61.7735 131.989L60.0245 125.492C60.0963 125.455 60.1832 125.43 60.2853 125.418C60.3843 125.401 60.4859 125.396 60.59 125.403C60.7414 125.411 60.8576 125.453 60.9386 125.527C61.0165 125.601 61.0795 125.739 61.1277 125.94L62.0103 129.371C62.0792 129.649 62.1503 129.941 62.2238 130.248C62.2942 130.555 62.3537 130.831 62.4023 131.076L62.4544 131.079C62.5139 130.878 62.5875 130.652 62.6752 130.402C62.7597 130.152 62.8321 129.947 62.8923 129.787L64.4849 125.689C64.5424 125.68 64.6076 125.674 64.6805 125.673C64.7503 125.67 64.823 125.671 64.8987 125.676C64.9807 125.681 65.0623 125.692 65.1436 125.709C65.2217 125.727 65.2933 125.747 65.3584 125.769L65.3842 125.813L62.8613 132.058ZM63.3072 127.208C63.3355 127.209 63.397 127.213 63.4917 127.218C63.5829 127.227 63.6759 127.234 63.7705 127.24C63.8618 127.248 63.9232 127.253 63.9547 127.255L64.3852 127.281L64.0409 128.04L63.6624 128.018C63.6308 128.016 63.5741 128.012 63.4921 128.008C63.4099 128.006 63.3294 128.003 63.2505 127.998C63.1683 127.996 63.113 127.995 63.0847 127.993L62.1148 127.936C62.0865 127.934 62.0314 127.929 61.9495 127.921C61.8644 127.916 61.7809 127.91 61.6991 127.902C61.6139 127.897 61.5556 127.893 61.524 127.891L61.1361 127.868L60.927 127.076L61.3575 127.102C61.3859 127.103 61.449 127.106 61.547 127.108C61.6416 127.114 61.7363 127.118 61.8311 127.12C61.9226 127.126 61.9825 127.129 62.0109 127.131L63.3072 127.208Z" fill="#9DD3AF"/>
<path d="M58.1665 125.762C58.1295 125.896 58.0601 126.023 57.9583 126.142C57.8529 126.264 57.745 126.354 57.6346 126.415C57.3965 126.187 57.1235 125.983 56.8157 125.803C56.5079 125.623 56.1938 125.505 55.8735 125.448C55.4879 125.379 55.1712 125.408 54.9233 125.537C54.6755 125.665 54.5275 125.862 54.4795 126.128C54.4375 126.36 54.479 126.575 54.6037 126.773C54.7248 126.974 54.9134 127.156 55.1694 127.32L56.2089 127.99C56.5705 128.228 56.8435 128.494 57.0278 128.789C57.2115 129.087 57.2679 129.432 57.1969 129.825C57.1371 130.157 56.9958 130.441 56.7731 130.679C56.5497 130.921 56.2668 131.092 55.9242 131.194C55.5816 131.296 55.202 131.309 54.7853 131.235C54.4028 131.166 54.0511 131.052 53.73 130.892C53.4084 130.736 53.1372 130.575 52.9164 130.411C52.9436 130.279 53.0021 130.15 53.092 130.026C53.1788 129.901 53.2797 129.804 53.3949 129.735C53.6188 129.9 53.8677 130.049 54.1418 130.185C54.4123 130.323 54.6672 130.413 54.9067 130.456C55.258 130.519 55.5536 130.482 55.7932 130.346C56.0328 130.21 56.1759 130.013 56.2222 129.757C56.2608 129.543 56.2175 129.356 56.0922 129.197C55.9639 129.036 55.7921 128.886 55.5767 128.745L54.5496 128.087C54.3079 127.932 54.0975 127.755 53.9182 127.557C53.7358 127.358 53.6022 127.137 53.5175 126.895C53.4328 126.653 53.4159 126.392 53.4668 126.11C53.5305 125.757 53.6699 125.456 53.885 125.207C54.1001 124.958 54.3901 124.783 54.755 124.682C55.1199 124.581 55.5589 124.577 56.072 124.668C56.4576 124.737 56.8367 124.869 57.2092 125.064C57.5781 125.261 57.8972 125.493 58.1665 125.762Z" fill="#9DD3AF"/>
<path d="M51.1209 124.35C51.0682 124.479 50.9843 124.596 50.869 124.703C50.7499 124.811 50.6319 124.889 50.5152 124.935C50.3058 124.681 50.059 124.447 49.7747 124.232C49.4903 124.017 49.1926 123.863 48.8813 123.768C48.5066 123.654 48.1886 123.646 47.9273 123.744C47.6659 123.842 47.4956 124.021 47.4162 124.28C47.347 124.505 47.3626 124.724 47.4629 124.935C47.5593 125.148 47.7249 125.352 47.9597 125.545L48.9122 126.332C49.2431 126.61 49.4826 126.907 49.6305 127.221C49.7775 127.539 49.7924 127.889 49.6753 128.271C49.5765 128.593 49.4024 128.859 49.1529 129.069C48.9025 129.282 48.6012 129.419 48.2489 129.48C47.8967 129.54 47.5181 129.509 47.1132 129.386C46.7415 129.273 46.4058 129.118 46.1059 128.922C45.8052 128.729 45.5549 128.538 45.3552 128.349C45.3979 128.22 45.4713 128.099 45.5754 127.986C45.6764 127.872 45.7882 127.788 45.9107 127.733C46.1134 127.923 46.3428 128.101 46.5989 128.268C46.8511 128.437 47.0935 128.556 47.3262 128.627C47.6676 128.731 47.9654 128.729 48.2196 128.622C48.4737 128.516 48.639 128.337 48.7156 128.088C48.7793 127.88 48.7585 127.69 48.6531 127.516C48.5447 127.342 48.392 127.172 48.1949 127.007L47.2531 126.232C47.0316 126.05 46.8436 125.85 46.6891 125.632C46.5317 125.413 46.4252 125.178 46.3699 124.928C46.3145 124.678 46.3288 124.416 46.4128 124.142C46.518 123.799 46.6922 123.517 46.9354 123.295C47.1786 123.073 47.4873 122.933 47.8617 122.876C48.236 122.819 48.6724 122.866 49.171 123.018C49.5457 123.131 49.9065 123.307 50.2533 123.544C50.5962 123.783 50.8854 124.052 51.1209 124.35Z" fill="#9DD3AF"/>
<path d="M42.2756 124.121C42.3927 123.856 42.4922 123.577 42.574 123.283C42.6529 122.987 42.6925 122.699 42.6929 122.417C42.6903 122.134 42.6241 121.878 42.494 121.65C42.3598 121.422 42.138 121.241 41.8287 121.105C41.5222 120.971 41.2409 120.932 40.9847 120.988C40.7244 121.045 40.49 121.169 40.2815 121.36C40.0701 121.549 39.883 121.773 39.7202 122.031C39.5575 122.29 39.4175 122.551 39.3004 122.816C39.1832 123.081 39.0843 123.359 39.0038 123.65C38.922 123.944 38.883 124.231 38.8869 124.511C38.8865 124.793 38.9534 125.047 39.0876 125.275C39.2177 125.503 39.4359 125.685 39.7424 125.819C40.0518 125.955 40.3366 125.994 40.5969 125.936C40.8531 125.88 41.0868 125.758 41.2982 125.569C41.5055 125.381 41.6919 125.159 41.8576 124.901C42.0191 124.646 42.1584 124.386 42.2756 124.121ZM43.1907 124.522C42.9347 125.101 42.618 125.582 42.2408 125.966C41.8635 126.351 41.4378 126.599 40.9637 126.711C40.4884 126.825 39.9775 126.763 39.431 126.523C38.8845 126.283 38.4934 125.95 38.2574 125.524C38.0186 125.096 37.9165 124.613 37.9509 124.075C37.9812 123.539 38.1231 122.984 38.3766 122.411C38.6326 121.833 38.9498 121.35 39.3284 120.963C39.7056 120.578 40.132 120.329 40.6073 120.214C41.0827 120.099 41.5936 120.162 42.1401 120.402C42.5535 120.583 42.8777 120.818 43.1125 121.106C43.3444 121.394 43.4983 121.72 43.5743 122.087C43.6474 122.453 43.6495 122.842 43.5806 123.255C43.5117 123.668 43.3817 124.09 43.1907 124.522Z" fill="#9DD3AF"/>
<path d="M32.5784 120.299C32.4552 120.501 32.3687 120.724 32.3189 120.969C32.2648 121.214 32.2819 121.455 32.3703 121.689C32.4586 121.924 32.6524 122.129 32.9516 122.305C33.3923 122.564 33.8389 122.569 34.2912 122.32C34.7419 122.074 35.1842 121.585 35.618 120.854C36.0213 120.174 36.2127 119.576 36.1923 119.06C36.1676 118.545 35.9403 118.161 35.5105 117.909C35.2602 117.762 34.9827 117.67 34.6779 117.633C34.3688 117.597 34.0351 117.609 33.6768 117.669C33.6208 117.559 33.583 117.431 33.5636 117.285C33.5398 117.139 33.5433 117.01 33.5739 116.896C33.8119 116.835 34.0718 116.805 34.3535 116.807C34.6326 116.806 34.9189 116.843 35.2126 116.917C35.5063 116.991 35.7918 117.11 36.0693 117.273C36.4556 117.5 36.736 117.773 36.9106 118.091C37.0824 118.407 37.1709 118.75 37.1762 119.118C37.1815 119.486 37.1218 119.862 36.9971 120.245C36.8681 120.63 36.696 121.003 36.4807 121.366C36.0822 122.038 35.6554 122.528 35.2003 122.838C34.7408 123.148 34.2821 123.306 33.8243 123.311C33.3664 123.316 32.9389 123.201 32.5417 122.968C32.1391 122.731 31.8372 122.451 31.6361 122.129C31.4307 121.807 31.3206 121.479 31.3058 121.146C31.2894 120.815 31.3607 120.515 31.5198 120.247C31.6017 120.109 31.7046 120.016 31.8283 119.968C31.9478 119.921 32.0918 119.948 32.2605 120.047C32.3258 120.085 32.3818 120.124 32.4287 120.162C32.4728 120.199 32.5227 120.245 32.5784 120.299Z" fill="#9DD3AF"/>
<path d="M26.6195 118.869C26.5591 118.839 26.4918 118.8 26.4176 118.751C26.3435 118.703 26.2788 118.658 26.2235 118.616C26.1607 118.568 26.0974 118.516 26.0334 118.459C25.9694 118.403 25.9124 118.348 25.8623 118.294L29.7905 113.172C29.856 113.206 29.9245 113.246 29.9962 113.292C30.0678 113.339 30.135 113.386 30.1978 113.434C30.253 113.476 30.3139 113.526 30.3804 113.584C30.4469 113.643 30.5026 113.697 30.5477 113.747L26.6195 118.869Z" fill="#9DD3AF"/>
<path d="M20.4219 113.606C20.3587 113.562 20.2864 113.505 20.2049 113.435C20.1234 113.365 20.0543 113.303 19.9977 113.248C19.9433 113.196 19.8797 113.13 19.807 113.051C19.7344 112.972 19.6797 112.904 19.6431 112.847L22.5793 106.788C22.6578 106.807 22.7399 106.845 22.8257 106.902C22.9113 106.954 22.9916 107.016 23.0664 107.088C23.1752 107.193 23.236 107.3 23.2488 107.409C23.2593 107.516 23.2168 107.661 23.1212 107.845L21.5396 111.017C21.4094 111.273 21.2715 111.54 21.126 111.821C20.9782 112.098 20.8422 112.346 20.7181 112.564L20.7555 112.6C20.9326 112.486 21.1363 112.363 21.3667 112.231C21.5948 112.096 21.7842 111.988 21.9349 111.905L25.8287 109.836C25.8783 109.867 25.9314 109.905 25.9879 109.951C26.0422 109.994 26.0965 110.043 26.1509 110.095C26.2099 110.152 26.2644 110.214 26.3146 110.279C26.3624 110.343 26.4036 110.405 26.438 110.464L26.4287 110.515L20.4219 113.606ZM23.9408 110.221C23.9613 110.241 24.0055 110.284 24.0735 110.349C24.137 110.415 24.2028 110.481 24.2708 110.546C24.3343 110.612 24.3774 110.656 24.4001 110.678L24.7095 110.977L23.9506 111.329L23.6786 111.066C23.6559 111.044 23.6151 111.004 23.5562 110.947C23.495 110.893 23.4361 110.838 23.3795 110.783C23.3183 110.728 23.2776 110.691 23.2572 110.672L22.5601 109.998C22.5397 109.978 22.5011 109.939 22.4444 109.88C22.3832 109.82 22.3242 109.761 22.2674 109.702C22.2062 109.643 22.1643 109.602 22.1416 109.58L21.8628 109.311L22.2239 108.575L22.5333 108.874C22.5537 108.894 22.6001 108.937 22.6726 109.002C22.7406 109.068 22.8097 109.132 22.8799 109.196C22.9457 109.259 22.9887 109.301 23.0091 109.321L23.9408 110.221Z" fill="#9DD3AF"/>
<path d="M15.7013 105.109C15.5153 105.256 15.3562 105.435 15.224 105.647C15.0873 105.858 15.0193 106.089 15.0201 106.34C15.0208 106.59 15.1307 106.85 15.3497 107.119C15.6722 107.514 16.089 107.674 16.6002 107.597C17.1089 107.522 17.6944 107.217 18.3568 106.682C18.9726 106.185 19.3612 105.691 19.5226 105.2C19.6796 104.709 19.6008 104.27 19.2862 103.884C19.1031 103.66 18.8751 103.477 18.6022 103.337C18.3249 103.197 18.0079 103.092 17.6512 103.024C17.637 102.902 17.6464 102.769 17.6795 102.625C17.7081 102.48 17.7566 102.36 17.825 102.264C18.0694 102.289 18.3235 102.352 18.5872 102.45C18.8489 102.547 19.1044 102.681 19.3538 102.852C19.6032 103.023 19.8294 103.233 20.0325 103.482C20.3152 103.829 20.4827 104.182 20.535 104.54C20.5853 104.897 20.5486 105.248 20.4247 105.595C20.3008 105.943 20.1133 106.274 19.8624 106.59C19.607 106.906 19.315 107.196 18.9862 107.462C18.3778 107.953 17.8061 108.265 17.2711 108.398C16.7317 108.53 16.2466 108.518 15.8157 108.364C15.3849 108.21 15.0241 107.955 14.7335 107.598C14.4389 107.237 14.2537 106.87 14.1781 106.498C14.0981 106.125 14.1095 105.779 14.2124 105.461C14.3128 105.145 14.4845 104.889 14.7273 104.693C14.8525 104.592 14.9814 104.541 15.1141 104.539C15.2424 104.536 15.3682 104.611 15.4917 104.762C15.5394 104.821 15.5786 104.876 15.609 104.929C15.6375 104.979 15.6683 105.039 15.7013 105.109ZM20.783 103.49C20.6757 103.528 20.5433 103.57 20.3857 103.616C20.2262 103.66 20.0926 103.691 19.9852 103.709L19.6149 103.255C19.6692 103.251 19.7424 103.239 19.8345 103.217C19.9291 103.193 20.0064 103.173 20.0665 103.157C19.9343 102.96 19.873 102.753 19.8823 102.534C19.8896 102.314 19.9865 102.128 20.173 101.978C20.3815 101.809 20.621 101.753 20.8913 101.811C21.1596 101.865 21.3953 102.017 21.5983 102.266C21.6899 102.378 21.7638 102.499 21.8199 102.628C21.8765 102.752 21.9089 102.862 21.9169 102.956C21.8443 103.007 21.7639 103.046 21.6757 103.072C21.588 103.095 21.5037 103.106 21.4228 103.106C21.412 103.038 21.3895 102.963 21.3554 102.882C21.3213 102.8 21.2773 102.726 21.2236 102.66C21.128 102.543 21.0289 102.481 20.9262 102.475C20.826 102.467 20.7366 102.494 20.6581 102.558C20.5772 102.623 20.5304 102.705 20.5177 102.805C20.5051 102.904 20.5426 103.007 20.6302 103.115C20.6541 103.144 20.6804 103.172 20.7092 103.197C20.7405 103.22 20.7732 103.24 20.8073 103.257C20.8296 103.345 20.8216 103.422 20.783 103.49Z" fill="#9DD3AF"/>
<path d="M10.4725 101.478C10.4214 101.42 10.3644 101.348 10.3017 101.261C10.2391 101.174 10.1866 101.097 10.1445 101.031C10.104 100.967 10.0578 100.888 10.0058 100.795C9.95375 100.701 9.91672 100.622 9.89466 100.558L14.1783 95.3554C14.2501 95.3921 14.321 95.448 14.391 95.523C14.462 95.5937 14.5253 95.6729 14.581 95.7606C14.6619 95.8883 14.6958 96.0065 14.6826 96.1152C14.6676 96.2213 14.592 96.3525 14.4558 96.5088L12.1698 99.2227C11.9829 99.4406 11.7857 99.6687 11.5781 99.9069C11.3689 100.143 11.1783 100.352 11.0063 100.534L11.0341 100.578C11.2331 100.509 11.4601 100.437 11.7153 100.362C11.9688 100.284 12.1785 100.223 12.3444 100.179L16.6175 99.0777C16.6586 99.1189 16.7012 99.1684 16.7453 99.2262C16.7877 99.2813 16.8292 99.3408 16.8697 99.4046C16.9135 99.4738 16.952 99.5463 16.9852 99.6221C17.0167 99.6953 17.0421 99.7649 17.0615 99.8308L17.0406 99.8774L10.4725 101.478ZM14.6917 99.0104C14.7069 99.0343 14.7397 99.0862 14.7903 99.1659C14.8366 99.2447 14.885 99.324 14.9356 99.4038C14.9818 99.4826 15.0134 99.5353 15.0303 99.5619L15.2605 99.9249L14.4399 100.089L14.2375 99.77C14.2206 99.7434 14.1903 99.6955 14.1464 99.6264C14.0999 99.5589 14.0555 99.4919 14.0134 99.4255C13.9668 99.358 13.936 99.3123 13.9208 99.2884L13.4022 98.4706C13.387 98.4467 13.3588 98.3993 13.3177 98.3285C13.2721 98.2567 13.2288 98.1854 13.1876 98.1146C13.142 98.0428 13.1108 97.9936 13.094 97.967L12.8865 97.6399L13.4111 97.009L13.6414 97.372C13.6565 97.3959 13.6916 97.4483 13.7466 97.529C13.7972 97.6088 13.8491 97.6877 13.9024 97.7658C13.9513 97.843 13.9833 97.8935 13.9985 97.9174L14.6917 99.0104ZM9.60526 101.877C9.61158 101.94 9.62288 101.997 9.63918 102.046C9.65112 102.094 9.67143 102.141 9.7001 102.186C9.73721 102.245 9.79217 102.29 9.86499 102.322C9.93514 102.356 10.0139 102.377 10.1014 102.386L10.2798 102.402C10.3234 102.482 10.3482 102.575 10.3544 102.679C10.3579 102.784 10.3355 102.873 10.2873 102.944L10.1236 102.969C9.88165 103.005 9.66557 102.989 9.47536 102.919C9.28248 102.85 9.12785 102.724 9.01147 102.541C8.95413 102.45 8.91436 102.358 8.89217 102.264C8.86561 102.169 8.84763 102.082 8.83823 102.002L8.77086 101.437C8.76454 101.374 8.75338 101.312 8.73736 101.251C8.71868 101.192 8.69668 101.143 8.67139 101.103C8.63428 101.045 8.5815 101 8.51303 100.968C8.44288 100.934 8.36191 100.913 8.2701 100.903L8.09169 100.887C8.04377 100.806 8.01805 100.712 8.01456 100.607C8.01107 100.501 8.03428 100.414 8.08421 100.345L8.24786 100.32C8.48815 100.281 8.70557 100.297 8.90014 100.368C9.09203 100.441 9.24533 100.568 9.36001 100.748C9.41736 100.839 9.45931 100.932 9.48586 101.026C9.50974 101.123 9.52554 101.21 9.53326 101.287L9.60526 101.877Z" fill="#9DD3AF"/>
<path d="M10.0336 94.2164C10.296 94.092 10.5547 93.945 10.8095 93.7754C11.0629 93.6029 11.2821 93.4102 11.4671 93.1971C11.6507 92.9811 11.7683 92.7442 11.8199 92.4864C11.8673 92.227 11.8182 91.9455 11.6729 91.6417C11.5288 91.3407 11.3414 91.1283 11.1106 91.0043C10.8756 90.8789 10.6167 90.8205 10.3339 90.8292C10.0497 90.835 9.7612 90.883 9.46835 90.9731C9.1755 91.0632 8.89787 91.1705 8.63546 91.2949C8.37304 91.4193 8.11586 91.5657 7.86391 91.7339C7.60911 91.9035 7.39132 92.0956 7.21056 92.3102C7.02558 92.5233 6.90941 92.7595 6.86204 93.0189C6.81046 93.2767 6.85668 93.5561 7.00071 93.8571C7.1461 94.1608 7.3363 94.3755 7.57132 94.5009C7.80212 94.6248 8.0596 94.6839 8.34377 94.678C8.62372 94.6707 8.91081 94.6234 9.20501 94.5362C9.49501 94.4474 9.77121 94.3408 10.0336 94.2164ZM10.4637 95.115C9.89036 95.3868 9.33475 95.5458 8.79685 95.5918C8.25895 95.6379 7.7738 95.5492 7.3414 95.3258C6.90615 95.1037 6.56012 94.7243 6.30331 94.1877C6.04651 93.6511 5.9686 93.1447 6.06959 92.6683C6.16922 92.1891 6.40857 91.7569 6.78763 91.3716C7.16248 90.9849 7.63371 90.6569 8.20133 90.3878C8.77465 90.1159 9.33169 89.9563 9.87244 89.9089C10.4103 89.8628 10.8969 89.9509 11.3322 90.173C11.7674 90.395 12.1134 90.7744 12.3703 91.311C12.5646 91.717 12.656 92.1056 12.6447 92.4767C12.632 92.845 12.5341 93.1927 12.3512 93.5198C12.1669 93.8441 11.9132 94.1403 11.5901 94.4084C11.267 94.6766 10.8915 94.9121 10.4637 95.115Z" fill="#9DD3AF"/>
<path d="M5.09002 79.3513C5.09588 79.379 5.10662 79.4298 5.12223 79.5036C5.13476 79.5781 5.14883 79.6523 5.16445 79.7262C5.17698 79.8007 5.1865 79.8533 5.19301 79.8841C5.21188 79.9734 5.23295 80.0654 5.25621 80.1601C5.27883 80.2518 5.29957 80.3422 5.31844 80.4315L4.51151 80.6006C4.49264 80.5113 4.47499 80.4202 4.45855 80.3272C4.44147 80.2312 4.42349 80.1385 4.40462 80.0493C4.39811 80.0185 4.38705 79.9662 4.37143 79.8923C4.35272 79.8191 4.33556 79.7456 4.31994 79.6717C4.30123 79.5985 4.28894 79.5481 4.28309 79.5204L3.9424 77.9093C3.93655 77.8817 3.92736 77.8306 3.91483 77.7561C3.89921 77.6822 3.88514 77.608 3.87261 77.5335C3.85699 77.4596 3.84625 77.4089 3.8404 77.3812C3.82087 77.2888 3.7998 77.1968 3.77719 77.1052C3.75392 77.0104 3.73285 76.9184 3.71398 76.8292L4.52091 76.6601C4.53979 76.7494 4.55776 76.842 4.57485 76.938C4.59128 77.031 4.60926 77.1237 4.62878 77.216C4.63464 77.2437 4.64692 77.2941 4.66563 77.3673C4.68125 77.4412 4.69841 77.5147 4.71712 77.588C4.73274 77.6618 4.74348 77.7126 4.74934 77.7403L5.09002 79.3513ZM8.06633 79.2724C8.09367 79.3406 8.11954 79.4172 8.14394 79.502C8.1677 79.5838 8.18738 79.6617 8.203 79.7355C8.21732 79.8032 8.2305 79.8808 8.24254 79.9683C8.25392 80.0527 8.26092 80.1315 8.26352 80.2049L1.92863 81.5322C1.90129 81.464 1.87575 81.389 1.85199 81.3072C1.82759 81.2223 1.80823 81.1461 1.79391 81.0784C1.77829 81.0045 1.76479 80.9254 1.7534 80.841C1.74136 80.7535 1.73404 80.6731 1.73144 80.5997L3.71631 80.1839C3.84616 80.1567 3.96243 80.1339 4.0651 80.1156C4.16469 80.098 4.27786 80.0759 4.40462 80.0493L5.19301 79.8841C5.31667 79.8582 5.42919 79.833 5.53057 79.8086C5.63195 79.7841 5.74756 79.7583 5.87741 79.7311L8.06633 79.2724ZM5.31709 77.0814C5.18724 77.1086 5.07097 77.1314 4.9683 77.1497C4.86562 77.168 4.75245 77.1901 4.62878 77.216L3.8404 77.3812C3.71364 77.4077 3.60111 77.4329 3.50283 77.4567C3.40146 77.4812 3.28584 77.507 3.15599 77.5342L1.17112 77.9501C1.14378 77.8819 1.11824 77.8069 1.09449 77.7251C1.07073 77.6433 1.05137 77.567 1.0364 77.4962C1.02078 77.4224 1.00695 77.3417 0.994916 77.2542C0.982878 77.1668 0.975883 77.0879 0.973933 77.0176L7.30883 75.6903C7.33616 75.7585 7.36171 75.8335 7.38546 75.9153C7.40856 75.994 7.42825 76.0719 7.44452 76.1488C7.45949 76.2196 7.47299 76.2987 7.48503 76.3862C7.49642 76.4705 7.50341 76.5494 7.50601 76.6228L5.31709 77.0814Z" fill="#9DD3AF"/>
<path d="M3.6917 72.8447C3.98122 72.819 4.27507 72.7709 4.57325 72.7002C4.87115 72.6264 5.14408 72.5217 5.39203 72.386C5.6397 72.2472 5.83282 72.0659 5.97137 71.8421C6.10649 71.6154 6.15904 71.3344 6.12903 70.9993C6.09929 70.6672 5.99792 70.4031 5.82492 70.2069C5.6485 70.0079 5.42621 69.8634 5.15806 69.7736C4.88963 69.6806 4.60239 69.6255 4.29635 69.6085C3.99032 69.5914 3.69254 69.5958 3.40302 69.6215C3.1135 69.6471 2.82122 69.6952 2.52618 69.7656C2.228 69.8362 1.95665 69.9408 1.71212 70.0793C1.46417 70.215 1.27264 70.3962 1.13751 70.6229C0.998959 70.8467 0.944552 71.1246 0.974289 71.4567C1.00431 71.7919 1.10753 72.059 1.28396 72.258C1.45695 72.4542 1.67767 72.5988 1.9461 72.6918C2.2111 72.7819 2.49677 72.8371 2.80308 72.8573C3.10597 72.8746 3.40218 72.8704 3.6917 72.8447ZM3.78049 73.8361C3.14795 73.8923 2.57151 73.8487 2.05116 73.7054C1.53081 73.5622 1.10705 73.3109 0.779874 72.9516C0.449551 72.5925 0.257879 72.117 0.204856 71.525C0.151832 70.9329 0.255975 70.4311 0.517282 70.0196C0.77831 69.6049 1.15388 69.2827 1.64399 69.0529C2.13067 68.8203 2.68714 68.6762 3.31338 68.6206C3.94592 68.5645 4.52394 68.6079 5.04744 68.7509C5.56778 68.8942 5.99312 69.1453 6.32344 69.5044C6.65376 69.8634 6.84544 70.339 6.89846 70.931C6.93858 71.3789 6.8884 71.7749 6.74792 72.1189C6.60716 72.4597 6.39383 72.7518 6.10793 72.995C5.82175 73.2351 5.48031 73.4248 5.08361 73.5642C4.68691 73.7036 4.25254 73.7943 3.78049 73.8361Z" fill="#9DD3AF"/>
<path d="M5.93828 66.499C5.7997 66.4823 5.66368 66.4327 5.53022 66.3501C5.3937 66.2642 5.28742 66.1714 5.21137 66.0717C5.40268 65.8036 5.56488 65.5048 5.69797 65.1752C5.83106 64.8456 5.90242 64.5189 5.91207 64.1952C5.92368 63.8054 5.84749 63.4979 5.68351 63.2729C5.51953 63.0478 5.30174 62.9312 5.03015 62.9232C4.79329 62.9162 4.58568 62.9888 4.4073 63.1408C4.22586 63.2896 4.07255 63.5022 3.94737 63.7785L3.43508 64.9007C3.25275 65.2918 3.02864 65.5998 2.76275 65.8248C2.4937 66.0497 2.15864 66.1562 1.75757 66.1444C1.41965 66.1344 1.11594 66.0373 0.846435 65.8532C0.573768 65.6689 0.361632 65.4157 0.210027 65.0935C0.0584222 64.7712 -0.0111075 64.3995 0.00143827 63.9783C0.0129541 63.5916 0.0743437 63.2285 0.185607 62.8888C0.293712 62.5491 0.412998 62.2584 0.543465 62.0168C0.679168 62.024 0.815514 62.0626 0.952503 62.1327C1.08959 62.1997 1.20084 62.2848 1.28627 62.388C1.15571 62.6327 1.04344 62.9 0.949467 63.1898C0.852428 63.4764 0.800304 63.7407 0.793095 63.9827C0.782515 64.338 0.862515 64.6235 1.03309 64.8393C1.20367 65.0551 1.42002 65.1669 1.68214 65.1747C1.90005 65.1811 2.07914 65.1109 2.21944 64.964C2.35982 64.814 2.48405 64.6226 2.59213 64.3898L3.09453 63.2814C3.21292 63.0206 3.35737 62.7873 3.52786 62.5816C3.69845 62.3727 3.89772 62.2086 4.12569 62.0895C4.35366 61.9704 4.61133 61.9151 4.89872 61.9236C5.25874 61.9342 5.57838 62.027 5.85764 62.202C6.13691 62.377 6.35359 62.6366 6.5077 62.981C6.66181 63.3253 6.73114 63.7568 6.71569 64.2755C6.70408 64.6653 6.62917 65.0579 6.49095 65.4534C6.34968 65.8457 6.16545 66.1942 5.93828 66.499Z" fill="#9DD3AF"/>
<path d="M3.20241 54.1995C3.65864 54.2673 4.0279 54.4144 4.3102 54.6407C4.58938 54.8666 4.78462 55.1516 4.89594 55.4957C5.00414 55.8393 5.02721 56.2179 4.96517 56.6316L4.75385 58.0406L4.01327 57.9305C4.02601 57.8243 4.04457 57.6792 4.06897 57.4952C4.09383 57.3082 4.11956 57.126 4.14615 56.9487C4.17008 56.7678 4.18881 56.6323 4.20234 56.5421C4.24992 56.2248 4.21576 55.9733 4.09987 55.7876C3.98444 55.5987 3.82984 55.4581 3.63605 55.3657C3.43961 55.2697 3.24608 55.2076 3.05547 55.1793C2.86173 55.1505 2.65997 55.1539 2.45018 55.1895C2.23774 55.2215 2.05018 55.3113 1.8875 55.4588C1.72528 55.6032 1.62038 55.8341 1.5728 56.1513C1.55228 56.2882 1.52825 56.4484 1.50073 56.6319C1.47055 56.8118 1.442 56.9809 1.41509 57.139L7.1007 57.9839C7.10247 58.0573 7.09995 58.138 7.09314 58.226C7.08679 58.3109 7.07802 58.3907 7.06683 58.4654C7.05656 58.5338 7.04178 58.6111 7.02247 58.6972C7.00362 58.7803 6.98258 58.8567 6.95936 58.9263L0.608154 57.9826L0.561003 57.9136C0.607 57.5643 0.649498 57.2383 0.688497 56.9357C0.724371 56.6326 0.765632 56.3255 0.81228 56.0145C0.873856 55.6039 1.00523 55.2498 1.20639 54.9522C1.40755 54.6546 1.67478 54.4383 2.00807 54.3034C2.34182 54.1654 2.73994 54.1308 3.20241 54.1995Z" fill="#9DD3AF"/>
<path d="M2.32148 48.9759C2.32677 48.9089 2.33803 48.8321 2.35526 48.7455C2.37248 48.6589 2.39025 48.5822 2.40857 48.5155C2.42939 48.4397 2.45409 48.3616 2.48267 48.2814C2.51126 48.2011 2.54122 48.1278 2.57256 48.0613L8.81734 49.7598C8.81037 49.8329 8.7987 49.9112 8.78231 49.9948C8.76592 50.0784 8.74731 50.1581 8.72649 50.2339C8.70817 50.3006 8.6843 50.3756 8.65489 50.4589C8.62548 50.5422 8.59593 50.6141 8.56625 50.6744L2.32148 48.9759Z" fill="#9DD3AF"/>
<path d="M4.9074 43.3783C4.84116 43.3651 4.77465 43.3485 4.70787 43.3283C4.63815 43.3069 4.57694 43.2856 4.52424 43.2643C4.46861 43.2419 4.40978 43.2147 4.34774 43.1829C4.28278 43.1499 4.22046 43.1146 4.1608 43.0769L5.78518 39.0901C5.91068 39.1001 6.03492 39.1299 6.15789 39.1795C6.30135 39.2374 6.3872 39.3196 6.41544 39.426C6.44194 39.5283 6.42016 39.6655 6.3501 39.8374L6.10252 40.445C6.07996 40.5004 6.04525 40.5814 5.99839 40.6881C5.95153 40.7947 5.91563 40.8786 5.89069 40.9398L5.53091 41.8229C5.50716 41.8812 5.47478 41.9648 5.43378 42.0738C5.39396 42.1799 5.36158 42.2636 5.33665 42.3248L4.9074 43.3783ZM6.18089 42.0853C6.06085 42.0368 5.95398 41.9937 5.86029 41.9558C5.76486 41.9139 5.65566 41.8681 5.53269 41.8185L5.16818 41.6714L5.5244 40.7971L5.88891 40.9442C6.01188 40.9939 6.12168 41.0382 6.21829 41.0772C6.31317 41.1121 6.42063 41.1538 6.54067 41.2022L11.152 43.0638C11.1364 43.1355 11.1149 43.2134 11.0875 43.2973C11.0613 43.3784 11.0346 43.4524 11.0072 43.5195C10.9811 43.5836 10.9485 43.6553 10.9094 43.7345C10.8715 43.8108 10.8324 43.8816 10.7922 43.9468L6.18089 42.0853Z" fill="#9DD3AF"/>
<path d="M8.25897 34.1903C8.28451 34.1182 8.32044 34.0337 8.36677 33.9371C8.4131 33.8404 8.45533 33.7576 8.49346 33.6888C8.53007 33.6227 8.57707 33.5443 8.63447 33.4537C8.69187 33.3631 8.7435 33.2927 8.78936 33.2425L15.4343 34.4649C15.4367 34.5452 15.4218 34.634 15.3896 34.7312C15.3617 34.8272 15.3225 34.9207 15.2722 35.0116C15.199 35.1438 15.1113 35.2303 15.0093 35.2713C14.9088 35.3095 14.7569 35.3069 14.5536 35.2636L11.0622 34.5812C10.7803 34.5235 10.4844 34.4617 10.1745 34.3958C9.86621 34.3272 9.59027 34.2619 9.34671 34.2001L9.32155 34.2455C9.47851 34.3855 9.65151 34.5487 9.84054 34.735C10.0311 34.9186 10.1861 35.0719 10.3056 35.1949L13.3371 38.3883C13.3207 38.4439 13.2977 38.5049 13.2681 38.5713C13.2401 38.6349 13.2078 38.6998 13.1712 38.7659C13.1315 38.8375 13.0863 38.9061 13.0356 38.9716C12.9864 39.0344 12.9375 39.0901 12.8889 39.1388L12.8378 39.1431L8.25897 34.1903ZM12.4665 36.677C12.4528 36.7018 12.4231 36.7555 12.3773 36.8381C12.3303 36.9165 12.2839 36.997 12.2382 37.0796C12.1911 37.1579 12.16 37.2109 12.1448 37.2384L11.9366 37.6143L11.3959 36.9783L11.579 36.6478C11.5942 36.6203 11.6217 36.5707 11.6613 36.4991C11.6982 36.426 11.7357 36.355 11.7739 36.2861C11.8108 36.213 11.8361 36.164 11.8498 36.1393L12.3188 35.2924C12.3326 35.2676 12.3606 35.2202 12.4031 35.1501C12.4443 35.0757 12.4861 35.0035 12.5285 34.9334C12.5697 34.859 12.5979 34.8081 12.6131 34.7806L12.8008 34.4418L13.6091 34.5945L13.4009 34.9704C13.3872 34.9952 13.358 35.0511 13.3135 35.138C13.2678 35.2206 13.2234 35.304 13.1804 35.3881C13.1362 35.468 13.1072 35.5203 13.0935 35.5451L12.4665 36.677Z" fill="#9DD3AF"/>
<path d="M17.6805 31.3513L17.4484 31.6733C17.3545 31.8036 17.2348 31.8806 17.0893 31.9044C16.9438 31.9283 16.7927 31.8843 16.6361 31.7724L11.873 28.3706L11.86 28.2916L12.0755 27.9926C12.1897 27.8342 12.31 27.7537 12.4363 27.751C12.5619 27.744 12.7095 27.8009 12.8789 27.922L17.6805 31.3513ZM18.6052 28.6443C18.8696 28.8331 19.0199 29.0024 19.0559 29.152C19.0912 29.2972 19.0426 29.4618 18.91 29.6457L17.4484 31.6733L16.5901 31.6583C16.7163 31.4077 16.8619 31.1518 17.027 30.8904C17.1914 30.6246 17.3463 30.3908 17.4918 30.1889L18.6052 28.6443Z" fill="#9DD3AF"/>
<path d="M17.39 21.4403C17.4318 21.3761 17.4867 21.3024 17.5545 21.2193C17.6224 21.1362 17.6829 21.0656 17.7362 21.0076C17.7874 20.9519 17.8516 20.8867 17.9288 20.8121C18.0059 20.7374 18.0728 20.6811 18.1292 20.6429L24.2997 23.3848C24.2831 23.4634 24.2477 23.5462 24.1934 23.6332C24.1437 23.72 24.0836 23.8017 24.0132 23.8782C23.9108 23.9896 23.8052 24.0533 23.6964 24.0692C23.5896 24.0829 23.4426 24.0449 23.2552 23.9552L20.0225 22.4756C19.7621 22.3536 19.4891 22.2244 19.2034 22.0879C18.9199 21.9491 18.6671 21.8211 18.445 21.7041L18.4098 21.7424C18.5293 21.9152 18.659 22.1142 18.7987 22.3395C18.9407 22.5625 19.0552 22.7478 19.1423 22.8953L21.3354 26.708C21.3063 26.7583 21.2696 26.8122 21.2252 26.8698C21.1829 26.9251 21.1362 26.9806 21.085 27.0363C21.0296 27.0966 20.9695 27.1527 20.9047 27.2046C20.8421 27.2541 20.7814 27.2968 20.7226 27.3328L20.6719 27.3251L17.39 21.4403ZM20.893 24.8411C20.8738 24.862 20.8322 24.9073 20.7683 24.9769C20.7041 25.042 20.64 25.1094 20.576 25.179C20.5118 25.2442 20.4691 25.2884 20.4478 25.3116L20.1567 25.6283L19.7812 24.8837L20.0372 24.6052C20.0585 24.582 20.0969 24.5403 20.1523 24.4799C20.2054 24.4175 20.2586 24.3572 20.312 24.2992C20.3651 24.2368 20.4012 24.1951 20.4204 24.1742L21.0762 23.4607C21.0954 23.4398 21.1339 23.4003 21.1916 23.3421C21.2492 23.2794 21.3069 23.219 21.3647 23.1608C21.4223 23.0981 21.4617 23.0552 21.483 23.032L21.7453 22.7466L22.495 23.084L22.2039 23.4008C22.1848 23.4216 22.1433 23.4691 22.0795 23.5432C22.0155 23.6128 21.9527 23.6835 21.8911 23.7552C21.8292 23.8225 21.7887 23.8666 21.7695 23.8874L20.893 24.8411Z" fill="#9DD3AF"/>
<path d="M26.1196 15.7912C26.3115 16.0128 26.443 16.2466 26.5142 16.4927C26.5858 16.7343 26.6036 16.9765 26.5676 17.2191C26.5319 17.4573 26.4503 17.6809 26.3227 17.89C26.475 17.8299 26.6415 17.8199 26.8222 17.86C27.0009 17.8978 27.1763 17.9631 27.3486 18.0561L28.4209 18.6371C28.6018 18.7352 28.7469 18.8016 28.8563 18.8365C28.9681 18.8693 29.078 18.883 29.1859 18.8776C29.2 18.9901 29.1766 19.1077 29.116 19.2303C29.0532 19.3505 28.9776 19.4486 28.889 19.5246C28.7526 19.6416 28.6191 19.6897 28.4885 19.6689C28.3578 19.6481 28.2021 19.5887 28.0212 19.4906L26.7945 18.8179C26.5858 18.7022 26.3816 18.6325 26.1817 18.6088C25.9822 18.5806 25.7687 18.6641 25.5414 18.8591L24.6295 19.6413L24.1376 19.0732C24.2388 18.9781 24.3555 18.8696 24.4878 18.7478C24.6225 18.624 24.7569 18.5046 24.8909 18.3896C25.0228 18.2723 25.1379 18.1715 25.236 18.0873C25.4753 17.882 25.6215 17.6799 25.6744 17.4809C25.7273 17.2819 25.7212 17.0941 25.6559 16.9176C25.5886 16.7387 25.4931 16.5778 25.3693 16.4348C25.2435 16.2895 25.0977 16.1717 24.932 16.0814C24.7641 15.9887 24.5785 15.9549 24.375 15.98C24.1715 16.0052 23.9501 16.1204 23.7108 16.3257C23.639 16.3872 23.554 16.4601 23.4559 16.5443C23.3601 16.6264 23.262 16.7106 23.1615 16.7968C23.0589 16.8807 22.9659 16.9563 22.8825 17.0237L26.6415 21.3654C26.5947 21.4222 26.541 21.4806 26.4805 21.5408C26.42 21.601 26.3599 21.6568 26.3 21.7081C26.2474 21.7533 26.1867 21.8012 26.1179 21.8519C26.0492 21.9025 25.9832 21.9467 25.9199 21.9844L21.7277 17.1424L21.7373 17.0595C22.0012 16.8248 22.258 16.5963 22.5075 16.3739C22.7574 16.1471 23.0032 15.93 23.245 15.7226C23.5776 15.4373 23.9133 15.2469 24.252 15.1515C24.5906 15.0561 24.9184 15.0614 25.2354 15.1673C25.5547 15.2712 25.8494 15.4791 26.1196 15.7912Z" fill="#9DD3AF"/>
<path d="M34.5131 7.95051C34.8166 7.78839 35.1088 7.63201 35.3898 7.48138C35.6722 7.32651 35.9525 7.17799 36.2308 7.03582C36.6468 6.82329 37.0214 6.70965 37.3548 6.69489C37.6909 6.6787 37.982 6.75089 38.2282 6.91146C38.4772 7.07059 38.6817 7.30544 38.8419 7.616C38.9529 7.83143 39.0076 8.05449 39.0058 8.28518C39.0068 8.51442 38.9533 8.73088 38.8452 8.93456C38.74 9.13679 38.5821 9.30582 38.3716 9.44165L38.3088 9.31995C38.5478 9.20492 38.8074 9.1607 39.0874 9.18729C39.3689 9.20965 39.6341 9.3004 39.883 9.45953C40.1348 9.61722 40.335 9.84016 40.4836 10.1283C40.6394 10.4305 40.7119 10.7399 40.7011 11.0565C40.6932 11.3716 40.5799 11.6787 40.3612 11.9778C40.1411 12.274 39.7949 12.5428 39.3227 12.7841C38.9826 12.9578 38.6684 13.113 38.3802 13.2497C38.0934 13.3891 37.7912 13.5364 37.4735 13.6917L37.3927 13.6693L34.4842 8.02888L34.5131 7.95051ZM37.9438 12.672C38.1237 12.5801 38.3029 12.4867 38.4813 12.392C38.6598 12.2973 38.8319 12.2076 38.9977 12.1229C39.231 12.0037 39.4042 11.8746 39.5172 11.7356C39.6329 11.5951 39.7035 11.453 39.7288 11.3093C39.7527 11.1628 39.7484 11.0236 39.7159 10.8917C39.6848 10.7556 39.6411 10.633 39.5849 10.5239C39.5113 10.3812 39.3996 10.2473 39.2499 10.1223C39.1003 9.9973 38.9108 9.92264 38.6817 9.89832C38.4539 9.86977 38.1854 9.93448 37.8762 10.0924L36.5396 10.7753L36.1999 10.1164L37.4521 9.47663C37.7247 9.33734 37.9089 9.18491 38.0047 9.01934C38.1004 8.85377 38.1396 8.6888 38.1224 8.52442C38.1051 8.36004 38.0618 8.2107 37.9926 8.07641C37.9204 7.93651 37.8244 7.81234 37.7046 7.7039C37.5847 7.59545 37.4315 7.53236 37.2448 7.51463C37.0581 7.4969 36.8284 7.55768 36.5557 7.69698C36.4349 7.75873 36.2845 7.83556 36.1046 7.92746C35.9232 8.01657 35.7616 8.09563 35.6196 8.16463L37.9438 12.672Z" fill="#9DD3AF"/>
<path d="M41.7666 4.6015L41.7985 4.5243L42.6115 4.22371L42.8837 4.95335C42.9299 5.07717 42.9688 5.17686 43.0004 5.25241C43.032 5.32796 43.0703 5.42618 43.1154 5.54705L44.4422 9.1024C44.4697 9.1761 44.494 9.24592 44.5153 9.31188C44.5365 9.37783 44.562 9.4506 44.5917 9.5302L44.8689 10.2731L44.5135 10.4045C44.3565 10.4626 44.214 10.4599 44.0859 10.3966C43.9567 10.3303 43.8596 10.2102 43.7947 10.0362L41.7666 4.6015ZM45.8497 6.00551C45.8865 6.059 45.921 6.12002 45.9534 6.18858C45.9875 6.2531 46.014 6.31042 46.0327 6.36054C46.0514 6.41066 46.069 6.47126 46.0854 6.54235C46.1048 6.61235 46.1186 6.68104 46.1269 6.74842L44.4254 7.37752C44.3573 7.40271 44.2728 7.43392 44.1721 7.47115C44.0703 7.50543 43.9661 7.54228 43.8595 7.58171C43.7518 7.61818 43.6535 7.65284 43.5646 7.68569L43.294 6.96047C43.3829 6.92762 43.4806 6.89149 43.5872 6.85206C43.6928 6.80969 43.7959 6.76989 43.8966 6.73266C43.9962 6.69248 44.08 6.6598 44.1481 6.63461L45.8497 6.00551ZM45.3481 3.21189C45.3841 3.27236 45.4152 3.33301 45.4413 3.39382C45.4662 3.45169 45.4881 3.50568 45.5068 3.5558C45.5255 3.60592 45.5432 3.67149 45.56 3.75252C45.5786 3.8295 45.5887 3.90628 45.5903 3.98285L43.4534 4.77292C43.3853 4.79811 43.3009 4.82932 43.2002 4.86655C43.0995 4.90378 42.9953 4.94063 42.8875 4.9771C42.7798 5.01358 42.681 5.04677 42.591 5.07667L42.3138 4.33376L45.3481 3.21189ZM47.4889 8.43385C47.5923 8.71097 47.6231 8.92437 47.5812 9.07404C47.5412 9.21968 47.4086 9.33411 47.1835 9.41733L44.5713 10.3832L44.3006 9.65794C44.4336 9.59872 44.5665 9.53951 44.6994 9.48029C44.8324 9.42108 44.9877 9.35862 45.1654 9.29291L47.4889 8.43385Z" fill="#9DD3AF"/>
<path d="M49.0253 2.10569C49.0984 2.07194 49.1895 2.03871 49.2985 2.00601C49.4069 1.97025 49.4963 1.94387 49.567 1.92688C49.6468 1.90767 49.7382 1.88894 49.841 1.87068C49.9438 1.85241 50.0412 1.83868 50.1333 1.82949L50.1518 2.97035L50.0804 2.99725C50.1431 3.20216 50.2103 3.4319 50.2818 3.68646C50.3557 3.93722 50.4276 4.19331 50.4976 4.45473C50.5699 4.71235 50.6335 4.95426 50.6884 5.18047L51.4097 8.15175C51.3328 8.18318 51.2583 8.21082 51.1861 8.23466C51.1138 8.2585 51.047 8.27781 50.9856 8.29259C50.9272 8.30662 50.8589 8.31981 50.7807 8.33217C50.7024 8.34452 50.6234 8.35382 50.5437 8.36006L49.0253 2.10569ZM51.0141 4.1121C50.8425 3.91396 50.6819 3.72125 50.5324 3.53396C50.3853 3.34288 50.2434 3.16023 50.1069 2.98601L49.5459 2.56286L50.1333 1.82949L53.0844 5.2496C53.2621 5.45923 53.4291 5.66496 53.5853 5.86679C53.7447 6.06788 53.8919 6.25248 54.0269 6.42058L54.6034 6.78665L53.9756 7.53458L51.0141 4.1121ZM53.5777 1.01555L55.0928 7.25616C55.0228 7.28917 54.9363 7.32129 54.8334 7.35252C54.7312 7.38681 54.634 7.41503 54.5419 7.43719C54.4528 7.45861 54.3584 7.47809 54.2587 7.49561C54.162 7.51239 54.0676 7.52538 53.9756 7.53458L53.982 6.43625L54.0581 6.40824C53.9841 6.17044 53.9083 5.91852 53.8307 5.65247C53.7531 5.38642 53.6797 5.12421 53.6105 4.86586C53.5443 4.60676 53.4857 4.37175 53.4345 4.16083L52.8489 1.74896C52.7992 1.54414 52.7989 1.38892 52.848 1.28328C52.8964 1.17458 53.0158 1.09734 53.2062 1.05154L53.5102 0.97841L53.5777 1.01555Z" fill="#9DD3AF"/>
<path d="M56.9424 0.513374L56.9916 0.445785L57.8528 0.343684L57.9453 1.11657C57.9609 1.24773 57.9752 1.35372 57.9881 1.43454C58.0009 1.51536 58.015 1.61979 58.0303 1.74782L58.481 5.5139C58.4903 5.59197 58.4975 5.66554 58.5026 5.73461C58.5077 5.80368 58.5153 5.88038 58.5254 5.96469L58.6195 6.75164L58.2431 6.79627C58.0768 6.81598 57.9389 6.78008 57.8293 6.68856C57.7193 6.59391 57.6533 6.45447 57.6313 6.27023L56.9424 0.513374ZM60.5799 2.83273C60.6031 2.89333 60.6223 2.96073 60.6375 3.03493C60.6555 3.10564 60.6677 3.16753 60.674 3.22062C60.6804 3.27371 60.6832 3.33672 60.6823 3.40966C60.6847 3.48223 60.6819 3.55223 60.6741 3.61967L58.8717 3.83336C58.7995 3.84191 58.7101 3.85251 58.6035 3.86516C58.4964 3.87468 58.3864 3.88614 58.2735 3.89953C58.1602 3.9098 58.0565 3.92051 57.9623 3.93167L57.8704 3.16347C57.9645 3.15231 58.0681 3.14003 58.181 3.12664C58.2936 3.11013 58.4032 3.09555 58.5099 3.0829C58.6161 3.06713 58.7054 3.05497 58.7775 3.04642L60.5799 2.83273ZM60.7516 0C60.7724 0.0672133 60.7882 0.133423 60.7992 0.19863C60.8098 0.260713 60.8183 0.318299 60.8247 0.371387C60.831 0.424474 60.8328 0.492358 60.83 0.575038C60.8299 0.654223 60.8216 0.731216 60.8051 0.806015L58.5416 1.07438C58.4694 1.08293 58.38 1.09353 58.2733 1.10618C58.1667 1.11883 58.0567 1.13028 57.9433 1.14055C57.83 1.15082 57.7261 1.15997 57.6316 1.16801L57.5375 0.381065L60.7516 0ZM61.6002 5.57639C61.6354 5.86993 61.6149 6.08455 61.5389 6.22025C61.4656 6.35245 61.3098 6.43269 61.0713 6.46095L58.3043 6.78902L58.2123 6.02081C58.3555 5.99433 58.4987 5.96786 58.6419 5.94138C58.7851 5.9149 58.9508 5.8905 59.1391 5.86818L61.6002 5.57639Z" fill="#9DD3AF"/>
<path d="M66.1624 6.46798C66.0898 6.48056 66.0108 6.49 65.9255 6.49629C65.8433 6.50258 65.7628 6.50572 65.6838 6.50572C65.6079 6.50572 65.5274 6.50258 65.4421 6.49629C65.3568 6.49 65.2778 6.48056 65.2051 6.46798V0.0807785L65.2667 0.0241712H66.153V0.528921C66.153 0.76793 66.1545 1.01008 66.1577 1.25538C66.1609 1.50068 66.1624 1.74284 66.1624 1.98184V6.46798ZM68.9917 0.0241712C69.0107 0.0776337 69.0233 0.138958 69.0296 0.208145C69.0391 0.277332 69.0438 0.341802 69.0438 0.401554C69.0438 0.555652 68.998 0.667294 68.9064 0.736481C68.8179 0.805668 68.6821 0.840261 68.4988 0.840261H67.0818C66.8196 0.840261 66.5811 0.838689 66.3662 0.835545C66.1545 0.829255 65.9602 0.821392 65.7833 0.811958V0.0241712H68.9917ZM68.4941 2.82152C68.5099 2.88442 68.521 2.95361 68.5273 3.02908C68.5368 3.10456 68.5415 3.16903 68.5415 3.22249C68.5415 3.27595 68.5368 3.33885 68.5273 3.41118C68.521 3.48351 68.5099 3.5527 68.4941 3.61874H66.5842C66.4705 3.61874 66.3425 3.61717 66.2003 3.61403C66.0582 3.61088 65.9255 3.60931 65.8023 3.60931V2.83567C65.9255 2.83253 66.0582 2.82938 66.2003 2.82624C66.3425 2.82309 66.4705 2.82152 66.5842 2.82152H68.4941Z" fill="#9DD3AF"/>
<path d="M73.9899 0.18387C74.0573 0.179189 74.1353 0.178934 74.2239 0.183103C74.3125 0.187272 74.3913 0.193448 74.4603 0.201631C74.5387 0.21093 74.6199 0.223724 74.7039 0.240012C74.7878 0.2563 74.8651 0.274967 74.9358 0.296013L74.1701 6.6946C74.0965 6.69853 74.0169 6.6986 73.9315 6.69481C73.846 6.69101 73.7641 6.68446 73.6856 6.67516C73.6166 6.66698 73.5386 6.65456 73.4515 6.6379C73.3644 6.62124 73.2886 6.60275 73.2242 6.58245L73.9899 0.18387Z" fill="#9DD3AF"/>
<path d="M83.1878 4.11754C83.2466 3.88901 83.2638 3.65051 83.2396 3.40204C83.2193 3.15125 83.1324 2.92654 82.9791 2.72789C82.8258 2.52925 82.5803 2.3893 82.2425 2.30805C81.7449 2.18838 81.3164 2.3134 80.9569 2.68311C80.5981 3.04976 80.3185 3.64577 80.1181 4.47112C79.9319 5.2384 79.9242 5.86583 80.0951 6.35342C80.2698 6.83869 80.5998 7.13969 81.085 7.2564C81.3676 7.32436 81.66 7.3316 81.9622 7.27812C82.2683 7.22233 82.5839 7.11383 82.9091 6.95263C82.9949 7.0412 83.0686 7.15275 83.1302 7.28727C83.1956 7.41948 83.2303 7.5443 83.2343 7.66174C83.0246 7.78924 82.7848 7.89333 82.5149 7.97401C82.2481 8.05543 81.9634 8.10343 81.6608 8.118C81.3583 8.13258 81.0503 8.10219 80.7371 8.02685C80.301 7.92196 79.9528 7.74277 79.6926 7.48928C79.4354 7.23654 79.2503 6.93479 79.1371 6.58404C79.024 6.23329 78.9708 5.85652 78.9776 5.45373C78.9882 5.04862 79.0432 4.64126 79.1427 4.23164C79.3267 3.47353 79.591 2.88032 79.9355 2.45199C80.2838 2.02135 80.6762 1.7372 81.1127 1.59953C81.5492 1.46186 81.9916 1.44695 82.44 1.5548C82.8945 1.66412 83.2653 1.8439 83.5523 2.09412C83.8432 2.34203 84.0446 2.62343 84.1567 2.93834C84.2695 3.25019 84.2892 3.55742 84.2157 3.86005C84.1779 4.01596 84.1068 4.13474 84.0024 4.21641C83.9019 4.29576 83.7564 4.31254 83.566 4.26674C83.4923 4.24902 83.4274 4.22855 83.3713 4.20534C83.3182 4.18288 83.2571 4.15361 83.1878 4.11754Z" fill="#9DD3AF"/>
<path d="M89.3066 3.7532C89.3732 3.7644 89.4491 3.78239 89.5342 3.80715C89.6194 3.83192 89.6945 3.85634 89.7597 3.88044C89.8337 3.90781 89.9096 3.93923 89.9874 3.97469C90.0651 4.01016 90.1359 4.04638 90.1996 4.08335L87.9454 10.1239C87.8729 10.1105 87.7956 10.092 87.7134 10.0683C87.6313 10.0446 87.5532 10.0191 87.4791 9.99174C87.414 9.96765 87.341 9.93733 87.2603 9.90077C87.1796 9.86421 87.1103 9.82854 87.0525 9.79375L89.3066 3.7532Z" fill="#9DD3AF"/>
<path d="M95.3251 6.31199L95.4039 6.28328L96.1755 6.67747L95.8184 7.36994C95.7578 7.48745 95.7101 7.5833 95.6754 7.65748C95.6407 7.73166 95.5938 7.8261 95.5347 7.94081L93.7948 11.315C93.7587 11.385 93.7234 11.45 93.6888 11.5101C93.6543 11.5702 93.6175 11.6381 93.5786 11.7136L93.215 12.4187L92.8777 12.2463C92.7288 12.1702 92.6345 12.0637 92.595 11.9269C92.5569 11.7872 92.5804 11.6349 92.6655 11.4698L95.3251 6.31199ZM97.0404 10.2584C97.0256 10.3215 97.0037 10.3881 96.9747 10.4581C96.9499 10.5268 96.9253 10.5849 96.9008 10.6324C96.8763 10.68 96.8432 10.7338 96.8016 10.7938C96.7628 10.8553 96.7212 10.9119 96.6768 10.9634L95.062 10.1384C94.9974 10.1054 94.9173 10.0645 94.8217 10.0156C94.7276 9.96402 94.6299 9.91236 94.5287 9.86067C94.429 9.80617 94.3369 9.75738 94.2526 9.7143L94.6075 9.02603C94.6918 9.06911 94.7846 9.1165 94.8858 9.1682C94.9884 9.2171 95.0875 9.26596 95.1831 9.31479C95.2801 9.36081 95.3609 9.40034 95.4256 9.43337L97.0404 10.2584ZM98.7727 8.00437C98.7522 8.07167 98.7282 8.13541 98.7007 8.1956C98.6746 8.25299 98.6494 8.30547 98.6248 8.35303C98.6003 8.4006 98.5637 8.45788 98.5149 8.52488C98.4704 8.59052 98.4203 8.64977 98.3647 8.70263L96.3366 7.66653C96.272 7.6335 96.1919 7.59258 96.0963 7.54375C96.0008 7.49493 95.9031 7.44327 95.8033 7.38877C95.7036 7.33428 95.6123 7.28409 95.5294 7.23821L95.893 6.53315L98.7727 8.00437ZM96.3468 13.1014C96.2112 13.3644 96.0738 13.531 95.9346 13.6013C95.7996 13.6702 95.6253 13.65 95.4117 13.5409L92.9325 12.2743L93.2875 11.5861C93.4211 11.6437 93.5547 11.7014 93.6883 11.7591C93.822 11.8167 93.9731 11.8886 94.1417 11.9748L96.3468 13.1014Z" fill="#9DD3AF"/>
<path d="M102.075 9.95835C102.149 9.98923 102.235 10.0337 102.333 10.0917C102.433 10.1471 102.513 10.1951 102.573 10.2355C102.641 10.2811 102.717 10.3356 102.799 10.3988C102.882 10.462 102.958 10.5243 103.027 10.5856L102.194 11.3693L102.126 11.335C102.016 11.5194 101.891 11.7238 101.751 11.9481C101.615 12.1717 101.474 12.3973 101.327 12.6252C101.185 12.8521 101.049 13.0622 100.918 13.2552L99.2024 15.7905C99.1272 15.7553 99.0564 15.7192 98.99 15.6822C98.9236 15.6453 98.8642 15.6092 98.8118 15.5741C98.762 15.5407 98.7061 15.4994 98.6441 15.4503C98.5821 15.4012 98.5219 15.3494 98.4635 15.2951L102.075 9.95835ZM101.93 12.7732C101.961 12.5135 101.995 12.2655 102.033 12.0293C102.076 11.7922 102.115 11.5648 102.152 11.3469L102.087 10.6492L103.027 10.5856L102.484 15.0616C102.449 15.3335 102.409 15.595 102.365 15.846C102.323 16.0988 102.286 16.3315 102.252 16.5441L102.37 17.2146L101.392 17.2584L101.93 12.7732ZM105.956 12.5659L102.352 17.8909C102.281 17.8618 102.198 17.82 102.106 17.7654C102.011 17.7135 101.925 17.6612 101.846 17.6085C101.77 17.5576 101.692 17.5014 101.612 17.44C101.534 17.3803 101.461 17.3197 101.392 17.2584L102.21 16.5217L102.282 16.5587C102.409 16.3438 102.544 16.1181 102.689 15.8816C102.834 15.645 102.979 15.4141 103.124 15.1889C103.271 14.9654 103.406 14.7637 103.527 14.5837L104.92 12.5257C105.038 12.351 105.153 12.246 105.265 12.2107C105.378 12.1729 105.516 12.2084 105.678 12.3173L105.938 12.4913L105.956 12.5659Z" fill="#9DD3AF"/>
<path d="M107.852 15.0349C107.886 14.9767 107.923 14.9193 107.963 14.8628C108.006 14.8039 108.046 14.753 108.083 14.7101C108.122 14.6648 108.167 14.618 108.217 14.5697C108.269 14.5191 108.323 14.4716 108.378 14.4274L111.652 17.236C111.602 17.3511 111.534 17.4587 111.447 17.5588C111.346 17.6755 111.241 17.7302 111.13 17.7227C111.024 17.7149 110.901 17.6505 110.76 17.5293L110.261 17.1013C110.215 17.0623 110.149 17.0036 110.063 16.9252C109.976 16.8469 109.908 16.7862 109.858 16.7431L109.132 16.121C109.085 16.0799 109.015 16.0226 108.925 15.949C108.836 15.8775 108.767 15.8202 108.717 15.7771L107.852 15.0349ZM108.675 16.6498C108.759 16.5522 108.834 16.4652 108.9 16.389C108.971 16.3124 109.049 16.2241 109.136 16.1241L109.393 15.8275L110.111 16.4434L109.854 16.74C109.767 16.84 109.69 16.9294 109.622 17.008C109.558 17.0863 109.484 17.1742 109.4 17.2719L106.151 21.024C106.088 20.9863 106.021 20.9411 105.95 20.8884C105.881 20.8377 105.819 20.7888 105.764 20.7415C105.711 20.6964 105.653 20.6427 105.591 20.5804C105.53 20.5202 105.475 20.4607 105.426 20.4019L108.675 16.6498Z" fill="#9DD3AF"/>
<path d="M114.396 20.0029L114.48 20.0033L115.065 20.6402L114.488 21.1656C114.391 21.2547 114.312 21.3281 114.254 21.3856C114.195 21.4431 114.118 21.5154 114.023 21.6024L111.211 24.1624C111.153 24.2155 111.097 24.2642 111.044 24.3086C110.99 24.353 110.932 24.4038 110.869 24.4611L110.282 24.996L110.026 24.7176C109.913 24.5946 109.862 24.4621 109.873 24.3202C109.886 24.176 109.961 24.0414 110.099 23.9161L114.396 20.0029ZM114.624 24.2968C114.588 24.3509 114.544 24.4057 114.492 24.4613C114.445 24.517 114.401 24.563 114.362 24.5991C114.322 24.6352 114.272 24.6741 114.212 24.716C114.154 24.7602 114.096 24.7987 114.036 24.8317L112.811 23.4987C112.762 23.4453 112.701 23.3792 112.629 23.3003C112.558 23.2193 112.485 23.137 112.408 23.0534C112.334 22.9678 112.265 22.8902 112.201 22.8205L112.774 22.2984C112.838 22.368 112.908 22.4445 112.985 22.5281C113.064 22.6095 113.14 22.6896 113.213 22.7685C113.287 22.8453 113.349 22.9104 113.398 22.9637L114.624 24.2968ZM117.036 22.7842C116.993 22.8402 116.948 22.8917 116.902 22.9386C116.857 22.9833 116.815 23.0238 116.775 23.0598C116.736 23.0959 116.681 23.1369 116.612 23.1828C116.548 23.229 116.48 23.2671 116.409 23.2974L114.87 21.6232C114.821 21.5699 114.761 21.5037 114.688 21.4248C114.616 21.346 114.542 21.2637 114.468 21.178C114.393 21.0924 114.325 21.0137 114.264 20.9419L114.851 20.407L117.036 22.7842ZM112.979 26.7215C112.76 26.921 112.573 27.0296 112.418 27.0472C112.267 27.065 112.111 26.9858 111.948 26.8094L110.068 24.7628L110.641 24.2407C110.746 24.341 110.851 24.4414 110.956 24.5418C111.061 24.6421 111.178 24.7619 111.306 24.9011L112.979 26.7215Z" fill="#9DD3AF"/>
<path d="M123.237 37.8033C122.913 37.981 122.592 38.1304 122.273 38.2515C121.954 38.3727 121.631 38.4419 121.305 38.4592C120.979 38.4764 120.645 38.4173 120.303 38.2818C120.137 38.2153 119.976 38.1147 119.822 37.9801C119.668 37.8455 119.527 37.6984 119.399 37.5389C119.274 37.3778 119.172 37.2257 119.092 37.0825C118.969 36.8594 118.858 36.6562 118.76 36.4729C118.664 36.2924 118.567 36.107 118.468 35.9166C118.372 35.7291 118.26 35.514 118.133 35.2713L118.153 35.1903L123.731 32.1294L123.81 32.1558C123.951 32.3908 124.074 32.5998 124.179 32.7828C124.288 32.9671 124.393 33.1487 124.492 33.3277C124.595 33.508 124.709 33.7096 124.832 33.9327C124.912 34.0759 124.985 34.244 125.052 34.437C125.122 34.6284 125.172 34.8256 125.201 35.0285C125.235 35.2327 125.235 35.4213 125.201 35.5944C125.132 35.9518 125.003 36.2631 124.814 36.5283C124.625 36.7934 124.395 37.0279 124.121 37.2316C123.852 37.4366 123.558 37.6272 123.237 37.8033ZM122.758 36.9399C123.01 36.8018 123.254 36.6463 123.49 36.4736C123.729 36.2993 123.929 36.1034 124.09 35.8858C124.254 35.6668 124.348 35.4265 124.373 35.1651C124.398 34.9037 124.323 34.6147 124.147 34.298C124.051 34.1245 123.962 33.9612 123.881 33.8082C123.8 33.6552 123.705 33.481 123.597 33.2854L119.21 35.6927C119.321 35.8867 119.417 36.0602 119.499 36.2132C119.58 36.3662 119.668 36.5295 119.764 36.703C119.94 37.0197 120.147 37.2366 120.385 37.3538C120.623 37.4709 120.877 37.5199 121.148 37.5006C121.419 37.4813 121.692 37.4176 121.967 37.3094C122.243 37.2013 122.507 37.0781 122.758 36.9399Z" fill="#9DD3AF"/>
<path d="M127.484 39.4469L127.563 39.4763L127.889 40.2763L127.164 40.5688C127.041 40.6184 126.942 40.6601 126.867 40.6937C126.792 40.7274 126.695 40.7684 126.575 40.8169L123.044 42.2423C122.971 42.2718 122.901 42.2981 122.836 42.3212C122.77 42.3443 122.698 42.3718 122.619 42.4037L121.881 42.7016L121.738 42.3519C121.675 42.1974 121.674 42.0555 121.734 41.9261C121.796 41.7956 121.914 41.6955 122.087 41.6258L127.484 39.4469ZM126.195 43.5509C126.143 43.5891 126.083 43.6253 126.015 43.6595C125.951 43.6954 125.894 43.7234 125.844 43.7435C125.795 43.7636 125.734 43.7829 125.663 43.8013C125.594 43.8227 125.525 43.8385 125.458 43.8487L124.775 42.1745C124.748 42.1074 124.714 42.0244 124.674 41.9253C124.636 41.825 124.596 41.7224 124.554 41.6175C124.514 41.5114 124.476 41.4147 124.44 41.3272L125.161 41.0365C125.196 41.1239 125.236 41.2201 125.278 41.325C125.324 41.4287 125.367 41.5301 125.407 41.6292C125.451 41.7271 125.486 41.8096 125.513 41.8766L126.195 43.5509ZM128.986 42.9691C128.926 43.0067 128.866 43.0394 128.806 43.0672C128.749 43.0937 128.695 43.1171 128.645 43.1371C128.596 43.1572 128.53 43.1768 128.449 43.1959C128.373 43.2167 128.296 43.229 128.219 43.2329L127.362 41.1302C127.335 41.0632 127.301 40.9801 127.261 40.8811C127.22 40.782 127.18 40.6794 127.14 40.5733C127.101 40.4672 127.064 40.3698 127.032 40.2812L127.769 39.9834L128.986 42.9691ZM123.805 45.2538C123.53 45.3649 123.317 45.4018 123.165 45.3646C123.018 45.3291 122.899 45.2006 122.809 44.9791L121.762 42.4087L122.482 42.1179C122.545 42.2484 122.609 42.379 122.672 42.5095C122.735 42.64 122.803 42.7927 122.874 42.9675L123.805 45.2538Z" fill="#9DD3AF"/>
<path d="M129.659 86.9743C129.647 87.0498 129.626 87.1392 129.598 87.2425C129.57 87.3458 129.543 87.4347 129.517 87.5092C129.493 87.5807 129.461 87.6661 129.42 87.7654C129.38 87.8646 129.342 87.943 129.306 88.0006L122.548 87.9674C122.531 87.8888 122.53 87.7988 122.545 87.6974C122.555 87.598 122.577 87.4991 122.611 87.4008C122.659 87.2578 122.73 87.1572 122.823 87.0989C122.915 87.0436 123.065 87.0194 123.273 87.0262L126.831 87.0831C127.118 87.0903 127.421 87.099 127.737 87.1093C128.053 87.1226 128.336 87.1382 128.587 87.1562L128.603 87.107C128.424 86.9968 128.225 86.8667 128.006 86.7166C127.785 86.5695 127.606 86.4459 127.466 86.3459L123.915 83.7366C123.921 83.679 123.933 83.6149 123.95 83.5443C123.967 83.4768 123.987 83.4073 124.011 83.3358C124.038 83.2583 124.07 83.1829 124.108 83.1094C124.145 83.039 124.184 82.9755 124.223 82.919L124.272 82.9058L129.659 86.9743ZM125.076 85.2676C125.085 85.2408 125.105 85.1827 125.135 85.0933C125.168 85.0079 125.199 84.9206 125.229 84.8312C125.262 84.7458 125.283 84.6882 125.293 84.6584L125.431 84.2518L126.076 84.7826L125.955 85.1401C125.945 85.1699 125.926 85.2235 125.9 85.301C125.877 85.3794 125.852 85.4559 125.827 85.5304C125.804 85.6088 125.788 85.6615 125.779 85.6883L125.467 86.6044C125.458 86.6312 125.439 86.6828 125.41 86.7593C125.382 86.8397 125.354 86.9182 125.325 86.9946C125.298 87.0751 125.279 87.1302 125.269 87.16L125.144 87.5264L124.322 87.5185L124.46 87.1118C124.469 87.085 124.487 87.0249 124.516 86.9315C124.546 86.8422 124.575 86.7523 124.602 86.6619C124.632 86.5755 124.651 86.5189 124.66 86.4921L125.076 85.2676Z" fill="#9DD3AF"/>
<path d="M120.891 91.4274L121.062 91.0697C121.131 90.9249 121.235 90.8279 121.374 90.7789C121.513 90.7298 121.67 90.7465 121.844 90.829L127.136 93.3386L127.163 93.414L127.004 93.7462C126.92 93.9222 126.816 94.0227 126.692 94.0475C126.57 94.0766 126.414 94.0465 126.226 93.9572L120.891 91.4274ZM120.462 94.2545C120.168 94.1152 119.99 93.9751 119.928 93.8342C119.867 93.6975 119.886 93.527 119.984 93.3225L121.062 91.0697L121.909 90.9333C121.83 91.2021 121.732 91.4796 121.616 91.766C121.501 92.0565 121.39 92.3139 121.283 92.5382L120.462 94.2545Z" fill="#9DD3AF"/>
<path d="M120.951 100.941C121.025 101.107 121.1 101.29 121.175 101.489C121.253 101.691 121.332 101.896 121.411 102.106L121.451 102.098C121.479 102.03 121.525 101.936 121.589 101.817C121.654 101.697 121.725 101.571 121.802 101.437C121.88 101.308 121.955 101.185 122.024 101.069C122.093 100.956 122.145 100.87 122.182 100.811L123.004 99.5149C123.057 99.5328 123.107 99.5534 123.156 99.5766C123.207 99.6015 123.254 99.6274 123.297 99.6543C123.372 99.7013 123.438 99.7502 123.495 99.8012C123.556 99.8538 123.614 99.9112 123.672 99.9735L121.6 103.24C121.46 103.197 121.351 103.162 121.274 103.136C121.198 103.114 121.14 103.094 121.099 103.076C121.061 103.06 121.028 103.043 121.002 103.026C120.951 102.994 120.905 102.952 120.863 102.9C120.82 102.851 120.779 102.786 120.74 102.705L118.959 98.7527C118.882 98.5854 118.801 98.395 118.716 98.1816C118.634 97.9699 118.556 97.7685 118.483 97.5775L118.444 97.5863C118.354 97.7639 118.259 97.939 118.161 98.1116C118.061 98.2868 117.973 98.4342 117.897 98.5539L117.346 99.4235C117.211 99.6362 117.106 99.8286 117.03 100.001C116.955 100.173 116.908 100.326 116.891 100.46C116.823 100.443 116.75 100.419 116.672 100.389C116.597 100.36 116.524 100.324 116.455 100.281C116.311 100.19 116.228 100.073 116.207 99.9294C116.188 99.7877 116.24 99.621 116.361 99.4296L118.281 96.402C118.419 96.4439 118.524 96.4784 118.597 96.5054C118.669 96.5324 118.725 96.5542 118.763 96.5707C118.801 96.5872 118.835 96.6047 118.864 96.6231C118.92 96.6584 118.974 96.7033 119.025 96.7579C119.075 96.8151 119.115 96.8813 119.146 96.9564L120.951 100.941Z" fill="#9DD3AF"/>
<path d="M118.533 107.31C118.501 107.369 118.46 107.435 118.409 107.507C118.358 107.58 118.311 107.643 118.267 107.696C118.217 107.757 118.163 107.819 118.105 107.881C118.046 107.943 117.989 107.998 117.933 108.046L112.906 103.986C112.942 103.922 112.985 103.855 113.033 103.785C113.082 103.715 113.132 103.65 113.181 103.589C113.225 103.535 113.277 103.476 113.338 103.411C113.399 103.347 113.455 103.293 113.506 103.25L118.533 107.31Z" fill="#9DD3AF"/>
<path d="M114.351 112.064C114.305 112.13 114.244 112.204 114.167 112.288C114.092 112.373 114.028 112.441 113.976 112.492C113.917 112.549 113.848 112.611 113.769 112.679C113.689 112.747 113.612 112.808 113.538 112.862L112.939 111.889L112.987 111.83C112.828 111.685 112.653 111.522 112.461 111.339C112.27 111.16 112.077 110.976 111.883 110.786C111.689 110.601 111.511 110.425 111.348 110.258L109.209 108.065C109.259 107.999 109.309 107.937 109.359 107.88C109.409 107.823 109.457 107.773 109.502 107.729C109.545 107.687 109.597 107.641 109.658 107.591C109.719 107.541 109.783 107.493 109.848 107.447L114.351 112.064ZM111.613 111.343C111.862 111.426 112.099 111.511 112.323 111.597C112.548 111.687 112.763 111.772 112.97 111.853L113.669 111.934L113.538 112.862L109.25 111.411C108.99 111.321 108.741 111.228 108.503 111.133C108.263 111.041 108.042 110.956 107.84 110.88L107.156 110.857L107.315 109.895L111.613 111.343ZM110.988 115.307L106.495 110.7C106.539 110.636 106.597 110.565 106.669 110.486C106.74 110.405 106.809 110.331 106.877 110.265C106.943 110.202 107.014 110.137 107.091 110.072C107.166 110.008 107.24 109.949 107.315 109.895L107.871 110.844L107.819 110.906C108.004 111.074 108.198 111.252 108.401 111.442C108.604 111.632 108.801 111.821 108.993 112.008C109.182 112.198 109.353 112.37 109.504 112.526L111.241 114.306C111.388 114.457 111.468 114.591 111.479 114.707C111.493 114.825 111.43 114.952 111.29 115.088L111.065 115.305L110.988 115.307Z" fill="#9DD3AF"/>
<path d="M105.185 115.484C105.207 115.466 105.249 115.435 105.309 115.389C105.371 115.346 105.432 115.301 105.493 115.255C105.555 115.212 105.598 115.181 105.624 115.162C105.696 115.107 105.771 115.048 105.847 114.986C105.92 114.927 105.993 114.869 106.066 114.814L106.566 115.466C106.494 115.521 106.419 115.577 106.341 115.631C106.262 115.688 106.185 115.744 106.112 115.799C106.087 115.818 106.045 115.851 105.984 115.897C105.926 115.945 105.867 115.992 105.806 116.038C105.748 116.086 105.708 116.119 105.685 116.136L104.37 117.135C104.348 117.152 104.305 117.182 104.243 117.226C104.183 117.271 104.122 117.316 104.059 117.359C103.999 117.405 103.958 117.437 103.935 117.454C103.86 117.511 103.785 117.57 103.712 117.629C103.636 117.691 103.562 117.749 103.489 117.805L102.988 117.152C103.061 117.097 103.138 117.041 103.217 116.984C103.295 116.93 103.371 116.874 103.446 116.816C103.469 116.799 103.509 116.766 103.568 116.718C103.628 116.672 103.687 116.625 103.746 116.577C103.806 116.531 103.847 116.5 103.87 116.483L105.185 115.484ZM103.833 112.843C103.883 112.789 103.941 112.733 104.008 112.674C104.072 112.618 104.134 112.567 104.194 112.521C104.25 112.479 104.314 112.434 104.388 112.385C104.46 112.339 104.529 112.299 104.594 112.265L108.522 117.387C108.472 117.44 108.415 117.496 108.351 117.552C108.285 117.611 108.224 117.661 108.169 117.703C108.108 117.749 108.042 117.795 107.971 117.841C107.897 117.89 107.827 117.931 107.761 117.965L106.53 116.36C106.45 116.255 106.379 116.16 106.319 116.076C106.26 115.994 106.191 115.902 106.112 115.799L105.624 115.162C105.547 115.062 105.476 114.972 105.41 114.891C105.344 114.81 105.271 114.718 105.19 114.613L103.833 112.843ZM103.028 116.256C103.109 116.361 103.179 116.455 103.24 116.54C103.301 116.624 103.37 116.716 103.446 116.816L103.935 117.454C104.014 117.556 104.085 117.647 104.149 117.725C104.215 117.805 104.288 117.898 104.368 118.003L105.599 119.608C105.549 119.662 105.492 119.717 105.428 119.773C105.364 119.83 105.303 119.88 105.245 119.924C105.185 119.97 105.118 120.017 105.044 120.065C104.97 120.114 104.901 120.154 104.838 120.186L100.91 115.064C100.96 115.01 101.017 114.955 101.081 114.899C101.142 114.844 101.205 114.793 101.267 114.745C101.325 114.701 101.391 114.655 101.465 114.607C101.537 114.56 101.605 114.52 101.671 114.486L103.028 116.256Z" fill="#9DD3AF"/>
<path d="M99.8846 119.538C99.7368 119.289 99.5667 119.046 99.3744 118.808C99.1793 118.572 98.9669 118.372 98.7373 118.208C98.5049 118.045 98.2574 117.949 97.9948 117.921C97.731 117.897 97.4536 117.971 97.1626 118.142C96.8742 118.311 96.6782 118.516 96.5747 118.756C96.47 119 96.4346 119.262 96.4684 119.541C96.4995 119.823 96.5731 120.104 96.6893 120.387C96.8055 120.669 96.9374 120.935 97.0853 121.184C97.2331 121.433 97.4023 121.675 97.5931 121.91C97.7854 122.148 97.9969 122.346 98.2277 122.507C98.4574 122.671 98.7041 122.765 98.9678 122.789C99.2304 122.817 99.5059 122.747 99.7943 122.577C100.085 122.406 100.283 122.198 100.388 121.954C100.491 121.715 100.528 121.454 100.497 121.173C100.464 120.896 100.392 120.615 100.278 120.331C100.164 120.052 100.032 119.787 99.8846 119.538ZM100.746 119.032C101.069 119.576 101.277 120.113 101.371 120.642C101.465 121.172 101.419 121.661 101.234 122.109C101.05 122.56 100.701 122.937 100.187 123.239C99.673 123.542 99.1731 123.664 98.6874 123.606C98.1991 123.55 97.7453 123.351 97.3261 123.009C96.9058 122.672 96.5358 122.234 96.2161 121.695C95.8931 121.151 95.6839 120.613 95.5885 120.081C95.4946 119.551 95.5395 119.061 95.7231 118.61C95.9067 118.159 96.2556 117.782 96.7697 117.48C97.1587 117.251 97.5395 117.126 97.9119 117.104C98.2815 117.084 98.6382 117.15 98.9817 117.302C99.3226 117.456 99.6415 117.682 99.9385 117.978C100.236 118.275 100.505 118.626 100.746 119.032Z" fill="#9DD3AF"/>
</svg>
